<svg width="18" height="12" viewBox="0 0 18 12" fill="none" xmlns="http://www.w3.org/2000/svg">
<path d="M6.5 10.5C6.5 10.4337 6.52634 10.3701 6.57322 10.3232L6.21967 9.96967L6.57322 10.3232C6.62011 10.2763 6.68369 10.25 6.75 10.25H11.25C11.3163 10.25 11.3799 10.2763 11.4268 10.3232C11.4737 10.3701 11.5 10.4337 11.5 10.5C11.5 10.5663 11.4737 10.6299 11.4268 10.6768C11.3799 10.7237 11.3163 10.75 11.25 10.75H6.75C6.6837 10.75 6.62011 10.7237 6.57322 10.6768C6.52634 10.6299 6.5 10.5663 6.5 10.5ZM3.5 6C3.5 5.9337 3.52634 5.87011 3.57322 5.82322C3.62011 5.77634 3.6837 5.75 3.75 5.75H14.25C14.3163 5.75 14.3799 5.77634 14.4268 5.82322C14.4737 5.87011 14.5 5.93369 14.5 6C14.5 6.06631 14.4737 6.12989 14.4268 6.17678C14.3799 6.22366 14.3163 6.25 14.25 6.25H3.75C3.6837 6.25 3.62011 6.22366 3.57322 6.17678C3.52634 6.12989 3.5 6.0663 3.5 6ZM0.5 1.5C0.5 1.4337 0.526339 1.37011 0.573223 1.32322C0.620108 1.27634 0.683696 1.25 0.75 1.25H17.25C17.3163 1.25 17.3799 1.27634 17.4268 1.32322C17.4737 1.37011 17.5 1.4337 17.5 1.5C17.5 1.5663 17.4737 1.62989 17.4268 1.67678C17.3799 1.72366 17.3163 1.75 17.25 1.75H0.75C0.683696 1.75 0.620108 1.72366 0.573223 1.67678C0.526339 1.62989 0.5 1.5663 0.5 1.5Z" fill="#2C2C2C" stroke="#502314"/>
</svg>
