<svg width="33" height="32" viewBox="0 0 33 32" fill="none" xmlns="http://www.w3.org/2000/svg">
<path d="M28.1289 6C28.1289 5.46957 27.9182 4.96086 27.5431 4.58579C27.168 4.21071 26.6593 4 26.1289 4L22.1289 4V2L20.1289 2V4L12.1289 4V2L10.1289 2V4L6.12891 4C5.59847 4 5.08977 4.21071 4.71469 4.58579C4.33962 4.96086 4.12891 5.46957 4.12891 6L4.12891 26C4.12891 26.5304 4.33962 27.0391 4.71469 27.4142C5.08977 27.7893 5.59847 28 6.12891 28H10.1289V26H6.12891L6.12891 6L10.1289 6V8H12.1289L12.1289 6L20.1289 6V8H22.1289V6H26.1289V12H28.1289V6Z" fill="#F6F5F0"/>
<path d="M21.1289 15L23.6779 19.938L29.1289 20.729L25.1289 24.573L26.1289 30L21.1289 27.438L16.1289 30L17.1289 24.573L13.1289 20.729L18.7289 19.938L21.1289 15Z" fill="#F6F5F0"/>
</svg>
