<svg width="33" height="32" viewBox="0 0 33 32" fill="none" xmlns="http://www.w3.org/2000/svg">
<path d="M13.2058 15.7431C13.0948 15.6523 12.9812 15.5615 12.9812 15.4707C12.9812 15.3578 13.0496 15.3124 13.1619 15.1775C13.7347 14.4958 14.0388 13.6266 14.0164 12.7346C14.0164 10.0205 12.1938 8.57263 9.35788 8.57263H6.67428C4.89683 8.57263 4.04102 9.61052 4.04102 11.0156L4.04102 20.9897C4.04102 22.3895 4.89683 23.4274 6.67428 23.4274H9.84968C12.8418 23.4274 14.6657 21.4139 14.6657 18.9035C14.6631 16.8965 13.4704 15.9689 13.2058 15.7431ZM8.00252 12.4634C8.00252 12.1689 8.18195 11.9445 8.56403 11.9445H8.85704C9.82515 11.9445 10.1182 12.623 10.1182 13.2107C10.1182 13.753 9.82515 14.5223 8.85704 14.5223H8.55887C8.17162 14.5223 7.99736 14.2966 7.99736 14.0034L8.00252 12.4634ZM8.96934 20.04H8.55887C8.17162 20.04 7.99736 19.8143 7.99736 19.5211V17.7566C7.99736 17.4608 8.17678 17.2377 8.55887 17.2377H8.96418C10.0446 17.2377 10.3596 17.9616 10.3596 18.6181C10.366 19.2032 10.0498 20.04 8.96934 20.04Z" stroke="#F6F5F0" stroke-width="1.5"/>
<path d="M20.5409 20.6303V18.4955C20.5409 18.3154 20.6164 18.1808 20.7982 18.1808C21.0375 18.1808 21.0967 18.4214 21.1568 18.5412C21.4999 19.3681 22.5027 21.1278 23.4301 22.1624C24.058 22.8522 24.8361 23.2902 25.6604 23.2902C27.051 23.2902 28.2168 22.0728 28.2168 20.7648C28.2168 19.9535 27.8737 19.3517 27.2157 18.6309C26.3776 17.7135 25.3911 16.5108 25.0316 15.9581C24.9441 15.8403 24.8922 15.6996 24.8824 15.5529C24.8824 15.3865 24.9682 15.2667 25.1517 15.102C25.5704 14.7105 26.6023 13.7337 27.1711 12.8474C27.6043 12.1705 27.7836 11.5541 27.7836 11.0437C27.7836 9.73573 26.6023 8.71576 25.3164 8.71576C24.4938 8.71576 23.7157 9.1822 23.1924 10.0384C22.4899 11.1816 21.6483 12.5042 21.1139 13.0301C20.9792 13.1655 20.9037 13.1957 20.7999 13.1957C20.6206 13.1957 20.5426 13.075 20.5426 12.8793V11.3713C20.5409 9.89868 19.6736 8.70886 18.1037 8.70886C16.5185 8.70886 15.6658 9.89695 15.6658 11.3696L15.6658 20.6303C15.6658 22.1038 16.5185 23.291 18.1037 23.291C19.6736 23.291 20.5409 22.1038 20.5409 20.6303Z" stroke="#F6F5F0" stroke-width="1.5"/>
</svg>
