<svg width="33" height="32" viewBox="0 0 33 32" fill="none" xmlns="http://www.w3.org/2000/svg">
<path d="M14.7956 20L22.7956 20V22.6667L14.7956 22.6667L14.7956 20ZM12.1289 9.33333H9.46224V12H12.1289L12.1289 9.33333ZM14.7956 17.3333L22.7956 17.3333L22.7956 14.6667L14.7956 14.6667V17.3333ZM14.7956 12L22.7956 12V9.33333L14.7956 9.33333L14.7956 12ZM12.1289 14.6667L9.46224 14.6667V17.3333H12.1289V14.6667ZM28.1289 6.66667L28.1289 25.3333C28.1289 26.8 26.9289 28 25.4622 28L6.79557 28C5.32891 28 4.12891 26.8 4.12891 25.3333L4.12891 6.66667C4.12891 5.2 5.32891 4 6.79557 4L25.4622 4C26.9289 4 28.1289 5.2 28.1289 6.66667ZM25.4622 6.66667L6.79557 6.66667L6.79557 25.3333L25.4622 25.3333L25.4622 6.66667ZM12.1289 20H9.46224V22.6667H12.1289L12.1289 20Z" fill="#F6F5F0"/>
</svg>
