<svg width="16" height="16" viewBox="0 0 16 16" fill="none" xmlns="http://www.w3.org/2000/svg">
<path d="M1.68417 15.6467C1.24996 15.6467 0.878383 15.4923 0.569435 15.1833C0.260488 14.8744 0.105751 14.5025 0.105225 14.0678L0.105225 5.38357C0.105225 4.94936 0.259962 4.57778 0.569435 4.26883C0.878909 3.95989 1.25049 3.80515 1.68417 3.80462L4.84207 3.80462L4.84207 2.22568C4.84207 1.79147 4.9968 1.41989 5.30628 1.11094C5.61575 0.801992 5.98733 0.647255 6.42101 0.646729L9.57891 0.646729C10.0131 0.646729 10.385 0.801465 10.6944 1.11094C11.0039 1.42041 11.1584 1.79199 11.1579 2.22568V3.80462L14.3158 3.80462C14.75 3.80462 15.1218 3.95936 15.4313 4.26883C15.7408 4.57831 15.8952 4.94989 15.8947 5.38357L15.8947 14.0678C15.8947 14.502 15.7402 14.8738 15.4313 15.1833C15.1223 15.4928 14.7505 15.6473 14.3158 15.6467L1.68417 15.6467ZM1.68417 14.0678L14.3158 14.0678L14.3158 5.38357L1.68417 5.38357L1.68417 14.0678ZM6.42101 3.80462L9.57891 3.80462V2.22568L6.42101 2.22568L6.42101 3.80462Z" fill="#4A4A4A"/>
</svg>
