<svg width="33" height="32" viewBox="0 0 33 32" fill="none" xmlns="http://www.w3.org/2000/svg">
<path fill-rule="evenodd" clip-rule="evenodd" d="M8.12886 14.4C8.97755 14.4 9.79148 14.0629 10.3916 13.4628C10.9917 12.8626 11.3289 12.0487 11.3289 11.2C11.3289 10.3513 10.9917 9.5374 10.3916 8.93728C9.79148 8.33717 8.97755 8.00002 8.12886 8.00002C7.28016 8.00002 6.46623 8.33717 5.86612 8.93728C5.266 9.5374 4.92886 10.3513 4.92886 11.2C4.92886 12.0487 5.266 12.8626 5.86612 13.4628C6.46623 14.0629 7.28016 14.4 8.12886 14.4ZM8.12886 16C8.7592 16 9.38338 15.8759 9.96574 15.6346C10.5481 15.3934 11.0772 15.0399 11.523 14.5941C11.9687 14.1484 12.3223 13.6193 12.5635 13.0369C12.8047 12.4545 12.9289 11.8304 12.9289 11.2C12.9289 10.5697 12.8047 9.94551 12.5635 9.36314C12.3223 8.78078 11.9687 8.25163 11.523 7.80591C11.0772 7.36019 10.5481 7.00663 9.96574 6.7654C9.38338 6.52418 8.7592 6.40002 8.12886 6.40002C6.85582 6.40002 5.63492 6.90574 4.73475 7.80591C3.83457 8.70609 3.32886 9.92699 3.32886 11.2C3.32886 12.4731 3.83457 13.694 4.73475 14.5941C5.63492 15.4943 6.85582 16 8.12886 16Z" fill="#F6F5F0"/>
<path fill-rule="evenodd" clip-rule="evenodd" d="M4.55772 7.62914C5.50478 6.68208 6.78927 6.15002 8.12861 6.15002C8.79179 6.15002 9.44847 6.28065 10.0612 6.53443C10.6739 6.78822 11.2306 7.1602 11.6995 7.62914C12.1684 8.09807 12.5404 8.65478 12.7942 9.26747C13.048 9.88017 13.1786 10.5368 13.1786 11.2C13.1786 11.8632 13.048 12.5199 12.7942 13.1326C12.5404 13.7453 12.1684 14.302 11.6995 14.7709C11.2306 15.2399 10.6739 15.6118 10.0612 15.8656C9.44847 16.1194 8.79179 16.25 8.12861 16.25C6.78927 16.25 5.50478 15.718 4.55772 14.7709C3.61067 13.8239 3.07861 12.5394 3.07861 11.2C3.07861 9.86068 3.61067 8.57619 4.55772 7.62914ZM8.12861 6.65002C6.92188 6.65002 5.76457 7.1294 4.91128 7.98269C4.05799 8.83598 3.57861 9.99329 3.57861 11.2C3.57861 12.4068 4.05799 13.5641 4.91128 14.4174C5.76457 15.2707 6.92188 15.75 8.12861 15.75C8.72613 15.75 9.31779 15.6323 9.86982 15.4037C10.4219 15.175 10.9234 14.8399 11.3459 14.4174C11.7685 13.9949 12.1036 13.4933 12.3323 12.9412C12.5609 12.3892 12.6786 11.7975 12.6786 11.2C12.6786 10.6025 12.5609 10.0108 12.3323 9.45882C12.1036 8.90678 11.7685 8.4052 11.3459 7.98269C10.9234 7.56018 10.4219 7.22503 9.86982 6.99637C9.31779 6.76771 8.72613 6.65002 8.12861 6.65002ZM5.68909 8.76051C6.3361 8.11351 7.21362 7.75002 8.12861 7.75002C9.04361 7.75002 9.92113 8.11351 10.5681 8.76051C11.2151 9.40751 11.5786 10.285 11.5786 11.2C11.5786 12.115 11.2151 12.9925 10.5681 13.6395C9.92113 14.2865 9.04361 14.65 8.12861 14.65C7.21362 14.65 6.3361 14.2865 5.68909 13.6395C5.04209 12.9925 4.67861 12.115 4.67861 11.2C4.67861 10.285 5.04209 9.40751 5.68909 8.76051ZM8.12861 8.25002C7.34622 8.25002 6.59588 8.56083 6.04265 9.11406C5.48942 9.66729 5.17861 10.4176 5.17861 11.2C5.17861 11.9824 5.48942 12.7328 6.04265 13.286C6.59588 13.8392 7.34622 14.15 8.12861 14.15C8.911 14.15 9.66135 13.8392 10.2146 13.286C10.7678 12.7328 11.0786 11.9824 11.0786 11.2C11.0786 10.4176 10.7678 9.66729 10.2146 9.11406C9.66135 8.56083 8.911 8.25002 8.12861 8.25002Z" fill="#F6F5F0"/>
<path fill-rule="evenodd" clip-rule="evenodd" d="M6.29496 14.2337C6.36947 14.308 6.42857 14.3963 6.4689 14.4935C6.50923 14.5907 6.52999 14.6949 6.52999 14.8001C6.52999 14.9053 6.50923 15.0095 6.4689 15.1067C6.42857 15.2039 6.36947 15.2922 6.29496 15.3665L5.75416 15.9057C4.71342 16.9467 4.1287 18.3585 4.12856 19.8305L4.12856 22.8001C4.12856 23.0123 4.04428 23.2158 3.89425 23.3658C3.74422 23.5158 3.54074 23.6001 3.32856 23.6001C3.11639 23.6001 2.91291 23.5158 2.76288 23.3658C2.61285 23.2158 2.52856 23.0123 2.52856 22.8001L2.52856 19.8305C2.52879 17.9342 3.28214 16.1155 4.62296 14.7745L5.16216 14.2337C5.23648 14.1592 5.32476 14.1001 5.42195 14.0598C5.51914 14.0194 5.62334 13.9987 5.72856 13.9987C5.83379 13.9987 5.93799 14.0194 6.03518 14.0598C6.13237 14.1001 6.22065 14.1592 6.29496 14.2337ZM25.1622 13.7537C25.0877 13.828 25.0286 13.9163 24.9882 14.0135C24.9479 14.1107 24.9271 14.2149 24.9271 14.3201C24.9271 14.4253 24.9479 14.5295 24.9882 14.6267C25.0286 14.7239 25.0877 14.8122 25.1622 14.8865L25.703 15.4257C26.2184 15.9411 26.6272 16.553 26.9061 17.2264C27.185 17.8998 27.3286 18.6216 27.3286 19.3505V22.8001C27.3286 23.0123 27.4128 23.2158 27.5629 23.3658C27.7129 23.5158 27.9164 23.6001 28.1286 23.6001C28.3407 23.6001 28.5442 23.5158 28.6943 23.3658C28.8443 23.2158 28.9286 23.0123 28.9286 22.8001V19.3505C28.9283 17.4542 28.175 15.6355 26.8342 14.2945L26.295 13.7537C26.2207 13.6792 26.1324 13.6201 26.0352 13.5798C25.938 13.5394 25.8338 13.5187 25.7286 13.5187C25.6233 13.5187 25.5191 13.5394 25.422 13.5798C25.3248 13.6201 25.2365 13.6792 25.1622 13.7537Z" fill="#F6F5F0"/>
<path fill-rule="evenodd" clip-rule="evenodd" d="M25.3259 13.3487C25.4535 13.2958 25.5902 13.2686 25.7283 13.2686C25.8664 13.2686 26.0032 13.2958 26.1308 13.3487C26.2583 13.4017 26.3742 13.4792 26.4717 13.577L27.0107 14.1176C27.0106 14.1175 27.0108 14.1177 27.0107 14.1176M25.5259 15.6024C25.5259 15.6023 25.526 15.6024 25.5259 15.6024C26.018 16.0945 26.4086 16.679 26.6749 17.322C26.9413 17.9651 27.0783 18.6543 27.0783 19.3504V22.8C27.0783 23.0785 27.1889 23.3455 27.3859 23.5424C27.5828 23.7394 27.8498 23.85 28.1283 23.85C28.4068 23.85 28.6739 23.7394 28.8708 23.5424C29.0677 23.3455 29.1783 23.0785 29.1783 22.8V19.3504C29.1781 17.3879 28.3982 15.5055 27.0107 14.1176M25.5259 15.6024L24.9854 15.0634C24.8876 14.9659 24.81 14.85 24.7571 14.7224C24.7041 14.5949 24.6769 14.4581 24.6769 14.32C24.6769 14.1819 24.7041 14.0451 24.7571 13.9176C24.81 13.79 24.8875 13.6742 24.9853 13.5767C25.0828 13.4791 25.1985 13.4016 25.3259 13.3487M25.7283 13.7686C25.656 13.7686 25.5843 13.7828 25.5175 13.8106C25.4507 13.8383 25.39 13.8789 25.3389 13.9301C25.2877 13.9812 25.2466 14.0424 25.2189 14.1092C25.1912 14.176 25.1769 14.2476 25.1769 14.32C25.1769 14.3923 25.1912 14.464 25.2189 14.5308C25.2466 14.5976 25.2873 14.6583 25.3385 14.7094L25.8792 15.2485C26.4179 15.7872 26.8454 16.4269 27.1368 17.1306C27.4283 17.8344 27.5783 18.5887 27.5783 19.3504V22.8C27.5783 22.9459 27.6363 23.0857 27.7394 23.1889C27.8426 23.292 27.9825 23.35 28.1283 23.35C28.2742 23.35 28.4141 23.292 28.5172 23.1889C28.6204 23.0857 28.6783 22.9459 28.6783 22.8V19.3504C28.6781 17.5204 27.9511 15.7653 26.6571 14.4711L26.1177 13.9301C26.1177 13.9301 26.1177 13.9302 26.1177 13.9301C26.0666 13.8789 26.0059 13.8383 25.9391 13.8106C25.8723 13.7828 25.8007 13.7686 25.7283 13.7686ZM5.72832 14.2486C5.65598 14.2486 5.58434 14.2628 5.51752 14.2906C5.45072 14.3183 5.39004 14.3589 5.33896 14.4101C5.33895 14.4101 5.33897 14.4101 5.33896 14.4101L4.79976 14.9509C3.50581 16.245 2.77855 18.0003 2.77832 19.8304C2.77832 19.8304 2.77832 19.8304 2.77832 19.8304L2.77832 22.8C2.77832 22.9459 2.83627 23.0857 2.93941 23.1889C3.04256 23.292 3.18245 23.35 3.32832 23.35C3.47419 23.35 3.61408 23.292 3.71723 23.1889C3.82037 23.0857 3.87832 22.9459 3.87832 22.8L3.87832 19.8304C3.87846 18.2921 4.48951 16.8167 5.57712 15.7288L6.11817 15.1894C6.11816 15.1894 6.11818 15.1894 6.11817 15.1894C6.16937 15.1383 6.21003 15.0776 6.23775 15.0108C6.26548 14.944 6.27975 14.8723 6.27975 14.8C6.27975 14.7276 6.26548 14.656 6.23775 14.5892C6.21002 14.5224 6.16939 14.4617 6.11817 14.4106C6.06708 14.3594 6.00594 14.3183 5.93912 14.2906C5.8723 14.2628 5.80066 14.2486 5.72832 14.2486ZM5.32589 13.8287C5.45345 13.7758 5.59021 13.7486 5.72832 13.7486C5.86643 13.7486 6.00319 13.7758 6.13075 13.8287C6.25821 13.8816 6.37398 13.9591 6.47147 14.0568C6.56916 14.1543 6.64667 14.2701 6.69957 14.3976C6.7525 14.5251 6.77975 14.6619 6.77975 14.8C6.77975 14.9381 6.7525 15.0748 6.69957 15.2024C6.64664 15.33 6.56906 15.4458 6.47127 15.5434L5.93072 16.0823C5.93066 16.0824 5.93078 16.0823 5.93072 16.0823C4.93696 17.0765 4.37846 18.4247 4.37832 19.8304C4.37832 19.8304 4.37832 19.8304 4.37832 19.8304L4.37832 22.8C4.37832 23.0785 4.2677 23.3455 4.07078 23.5424C3.87387 23.7394 3.6068 23.85 3.32832 23.85C3.04984 23.85 2.78277 23.7394 2.58586 23.5424C2.38894 23.3455 2.27832 23.0785 2.27832 22.8L2.27832 19.8304C2.27856 17.8678 3.05819 15.9856 4.44579 14.5978C4.44575 14.5978 4.44584 14.5977 4.44579 14.5978L4.98488 14.0571C5.08242 13.9593 5.19833 13.8817 5.32589 13.8287Z" fill="#F6F5F0"/>
<path fill-rule="evenodd" clip-rule="evenodd" d="M22.5285 14.4C21.6798 14.4 20.8659 14.0629 20.2658 13.4628C19.6657 12.8627 19.3285 12.0487 19.3285 11.2C19.3285 10.3513 19.6657 9.5374 20.2658 8.93728C20.8659 8.33717 21.6798 8.00002 22.5285 8.00002C23.3772 8.00002 24.1911 8.33717 24.7913 8.93728C25.3914 9.5374 25.7285 10.3513 25.7285 11.2C25.7285 12.0487 25.3914 12.8627 24.7913 13.4628C24.1911 14.0629 23.3772 14.4 22.5285 14.4ZM22.5285 16C21.8982 16 21.274 15.8759 20.6916 15.6346C20.1093 15.3934 19.5801 15.0399 19.1344 14.5941C18.6887 14.1484 18.3351 13.6193 18.0939 13.0369C17.8527 12.4545 17.7285 11.8304 17.7285 11.2C17.7285 10.5697 17.8527 9.94551 18.0939 9.36314C18.3351 8.78078 18.6887 8.25163 19.1344 7.80591C19.5801 7.36019 20.1093 7.00663 20.6916 6.7654C21.274 6.52418 21.8982 6.40002 22.5285 6.40002C23.8016 6.40002 25.0225 6.90574 25.9226 7.80591C26.8228 8.70609 27.3285 9.92699 27.3285 11.2C27.3285 12.4731 26.8228 13.694 25.9226 14.5941C25.0225 15.4943 23.8016 16 22.5285 16ZM15.3285 21.2C14.2677 21.2 13.2502 21.6215 12.5001 22.3716C11.7499 23.1217 11.3285 24.1392 11.3285 25.2V27.28C11.3285 27.4922 11.2442 27.6957 11.0942 27.8457C10.9442 27.9957 10.7407 28.08 10.5285 28.08C10.3163 28.08 10.1129 27.9957 9.96283 27.8457C9.8128 27.6957 9.72852 27.4922 9.72852 27.28V25.2C9.72852 23.7148 10.3185 22.2904 11.3687 21.2402C12.4189 20.19 13.8433 19.6 15.3285 19.6C16.8137 19.6 18.2381 20.19 19.2883 21.2402C20.3385 22.2904 20.9285 23.7148 20.9285 25.2V27.28C20.9285 27.4922 20.8442 27.6957 20.6942 27.8457C20.5442 27.9957 20.3407 28.08 20.1285 28.08C19.9163 28.08 19.7129 27.9957 19.5628 27.8457C19.4128 27.6957 19.3285 27.4922 19.3285 27.28V25.2C19.3285 24.6747 19.2251 24.1546 19.024 23.6693C18.823 23.184 18.5284 22.743 18.1569 22.3716C17.7855 22.0002 17.3446 21.7055 16.8593 21.5045C16.3739 21.3035 15.8538 21.2 15.3285 21.2Z" fill="#F6F5F0"/>
<path fill-rule="evenodd" clip-rule="evenodd" d="M22.5283 6.65002C21.9308 6.65002 21.3391 6.76771 20.7871 6.99637C20.235 7.22503 19.7334 7.56018 19.3109 7.98269C18.8884 8.4052 18.5533 8.90678 18.3246 9.45881C18.096 10.0108 17.9783 10.6025 17.9783 11.2C17.9783 11.7975 18.096 12.3892 18.3246 12.9412C18.5533 13.4933 18.8884 13.9949 19.3109 14.4174C19.7334 14.8399 20.235 15.175 20.7871 15.4037C21.3391 15.6323 21.9308 15.75 22.5283 15.75C23.735 15.75 24.8923 15.2707 25.7456 14.4174C26.5989 13.5641 27.0783 12.4068 27.0783 11.2C27.0783 9.99329 26.5989 8.83598 25.7456 7.98269C24.8923 7.1294 23.735 6.65002 22.5283 6.65002ZM20.5957 6.53443C21.2084 6.28065 21.8651 6.15002 22.5283 6.15002C23.8676 6.15002 25.1521 6.68208 26.0992 7.62914C27.0462 8.57619 27.5783 9.86068 27.5783 11.2C27.5783 12.5394 27.0462 13.8239 26.0992 14.7709C25.1521 15.718 23.8676 16.25 22.5283 16.25C21.8651 16.25 21.2084 16.1194 20.5957 15.8656C19.983 15.6118 19.4263 15.2399 18.9574 14.7709C18.4884 14.302 18.1165 13.7453 17.8627 13.1326C17.6089 12.5199 17.4783 11.8632 17.4783 11.2C17.4783 10.5368 17.6089 9.88017 17.8627 9.26747C18.1165 8.65478 18.4884 8.09807 18.9574 7.62914C19.4263 7.1602 19.983 6.78822 20.5957 6.53443ZM22.5283 8.25002C21.7459 8.25002 20.9955 8.56083 20.4423 9.11406C19.8891 9.66729 19.5783 10.4176 19.5783 11.2C19.5783 11.9824 19.8891 12.7328 20.4423 13.286C20.9955 13.8392 21.7459 14.15 22.5283 14.15C23.3107 14.15 24.061 13.8392 24.6142 13.286C25.1675 12.7328 25.4783 11.9824 25.4783 11.2C25.4783 10.4176 25.1675 9.66729 24.6142 9.11406C24.061 8.56083 23.3107 8.25002 22.5283 8.25002ZM20.0888 8.76051C20.7358 8.11351 21.6133 7.75002 22.5283 7.75002C23.4433 7.75002 24.3208 8.11351 24.9678 8.76051C25.6148 9.40751 25.9783 10.285 25.9783 11.2C25.9783 12.115 25.6148 12.9925 24.9678 13.6395C24.3208 14.2865 23.4433 14.65 22.5283 14.65C21.6133 14.65 20.7358 14.2865 20.0888 13.6395C19.4418 12.9925 19.0783 12.115 19.0783 11.2C19.0783 10.285 19.4418 9.40751 20.0888 8.76051ZM15.3283 19.85C13.9094 19.85 12.5486 20.4137 11.5453 21.417C10.5419 22.4203 9.97827 23.7811 9.97827 25.2V27.28C9.97827 27.4259 10.0362 27.5658 10.1394 27.6689C10.2425 27.7721 10.3824 27.83 10.5283 27.83C10.6741 27.83 10.814 27.7721 10.9172 27.6689C11.0203 27.5658 11.0783 27.4259 11.0783 27.28V25.2C11.0783 24.0729 11.526 22.9918 12.3231 22.1948C13.1201 21.3978 14.2011 20.95 15.3283 20.95C15.8864 20.95 16.439 21.06 16.9547 21.2735C17.4703 21.4871 17.9388 21.8002 18.3335 22.1948C18.7281 22.5895 19.0412 23.058 19.2548 23.5736C19.4683 24.0893 19.5783 24.6419 19.5783 25.2V27.28C19.5783 27.4259 19.6362 27.5658 19.7394 27.6689C19.8425 27.7721 19.9824 27.83 20.1283 27.83C20.2741 27.83 20.414 27.7721 20.5172 27.6689C20.6203 27.5658 20.6783 27.4259 20.6783 27.28V25.2C20.6783 23.7811 20.1146 22.4203 19.1113 21.417C18.108 20.4137 16.7472 19.85 15.3283 19.85ZM11.1917 21.0634C12.2888 19.9664 13.7768 19.35 15.3283 19.35C16.8798 19.35 18.3678 19.9664 19.4648 21.0634C20.5619 22.1605 21.1783 23.6485 21.1783 25.2V27.28C21.1783 27.5585 21.0676 27.8256 20.8707 28.0225C20.6738 28.2194 20.4067 28.33 20.1283 28.33C19.8498 28.33 19.5827 28.2194 19.3858 28.0225C19.1889 27.8256 19.0783 27.5585 19.0783 27.28V25.2C19.0783 24.7076 18.9813 24.2199 18.7928 23.765C18.6044 23.31 18.3281 22.8966 17.9799 22.5484C17.6317 22.2002 17.2183 21.9239 16.7633 21.7355C16.3084 21.547 15.8207 21.45 15.3283 21.45C14.3337 21.45 13.3799 21.8451 12.6766 22.5484C11.9734 23.2516 11.5783 24.2055 11.5783 25.2V27.28C11.5783 27.5585 11.4676 27.8256 11.2707 28.0225C11.0738 28.2194 10.8067 28.33 10.5283 28.33C10.2498 28.33 9.98272 28.2194 9.78581 28.0225C9.5889 27.8256 9.47827 27.5585 9.47827 27.28V25.2C9.47827 23.6485 10.0946 22.1605 11.1917 21.0634Z" fill="#F6F5F0"/>
<path fill-rule="evenodd" clip-rule="evenodd" d="M15.3288 18.8002C16.1775 18.8002 16.9914 18.463 17.5915 17.8629C18.1917 17.2628 18.5288 16.4489 18.5288 15.6002C18.5288 14.7515 18.1917 13.9375 17.5915 13.3374C16.9914 12.7373 16.1775 12.4002 15.3288 12.4002C14.4801 12.4002 13.6662 12.7373 13.0661 13.3374C12.466 13.9375 12.1288 14.7515 12.1288 15.6002C12.1288 16.4489 12.466 17.2628 13.0661 17.8629C13.6662 18.463 14.4801 18.8002 15.3288 18.8002ZM15.3288 20.4002C16.6018 20.4002 17.8227 19.8945 18.7229 18.9943C19.6231 18.0941 20.1288 16.8732 20.1288 15.6002C20.1288 14.3271 19.6231 13.1062 18.7229 12.2061C17.8227 11.3059 16.6018 10.8002 15.3288 10.8002C14.0558 10.8002 12.8349 11.3059 11.9347 12.2061C11.0345 13.1062 10.5288 14.3271 10.5288 15.6002C10.5288 16.8732 11.0345 18.0941 11.9347 18.9943C12.8349 19.8945 14.0558 20.4002 15.3288 20.4002Z" fill="#F6F5F0"/>
<path fill-rule="evenodd" clip-rule="evenodd" d="M11.7577 12.0292C12.7047 11.0821 13.9892 10.55 15.3286 10.55C16.6679 10.55 17.9524 11.0821 18.8995 12.0292C19.8465 12.9762 20.3786 14.2607 20.3786 15.6C20.3786 16.9394 19.8465 18.2239 18.8995 19.1709C17.9524 20.118 16.6679 20.65 15.3286 20.65C13.9892 20.65 12.7047 20.118 11.7577 19.1709C10.8106 18.2239 10.2786 16.9394 10.2786 15.6C10.2786 14.2607 10.8106 12.9762 11.7577 12.0292ZM15.3286 11.05C14.1218 11.05 12.9645 11.5294 12.1112 12.3827C11.2579 13.236 10.7786 14.3933 10.7786 15.6C10.7786 16.8068 11.2579 17.9641 12.1112 18.8174C12.9645 19.6707 14.1218 20.15 15.3286 20.15C16.5353 20.15 17.6926 19.6707 18.5459 18.8174C19.3992 17.9641 19.8786 16.8068 19.8786 15.6C19.8786 14.3933 19.3992 13.236 18.5459 12.3827C17.6926 11.5294 16.5353 11.05 15.3286 11.05ZM12.889 13.1605C13.536 12.5135 14.4136 12.15 15.3286 12.15C16.2436 12.15 17.1211 12.5135 17.7681 13.1605C18.4151 13.8075 18.7786 14.6851 18.7786 15.6C18.7786 16.515 18.4151 17.3926 17.7681 18.0396C17.1211 18.6866 16.2436 19.05 15.3286 19.05C14.4136 19.05 13.536 18.6866 12.889 18.0396C12.242 17.3926 11.8786 16.515 11.8786 15.6C11.8786 14.6851 12.242 13.8075 12.889 13.1605ZM15.3286 12.65C14.5462 12.65 13.7958 12.9609 13.2426 13.5141C12.6894 14.0673 12.3786 14.8177 12.3786 15.6C12.3786 16.3824 12.6894 17.1328 13.2426 17.686C13.7958 18.2392 14.5462 18.55 15.3286 18.55C16.111 18.55 16.8613 18.2392 17.4145 17.686C17.9678 17.1328 18.2786 16.3824 18.2786 15.6C18.2786 14.8177 17.9678 14.0673 17.4145 13.5141C16.8613 12.9609 16.111 12.65 15.3286 12.65Z" fill="#F6F5F0"/>
</svg>
