<svg width="33" height="32" viewBox="0 0 33 32" fill="none" xmlns="http://www.w3.org/2000/svg">
<path fill-rule="evenodd" clip-rule="evenodd" d="M4.50792 5.16625C5.0845 4.58967 5.86651 4.26575 6.68192 4.26575L25.5759 4.26575C26.3913 4.26575 27.1733 4.58967 27.7499 5.16625C28.3265 5.74283 28.6504 6.52484 28.6504 7.34024L28.6504 19.9362C28.6504 20.7516 28.3265 21.5336 27.7499 22.1102C27.1733 22.6868 26.3913 23.0107 25.5759 23.0107L6.68192 23.0107C5.86651 23.0107 5.0845 22.6868 4.50792 22.1102C3.93134 21.5336 3.60742 20.7516 3.60742 19.9362L3.60742 7.34024C3.60742 6.52484 3.93134 5.74283 4.50792 5.16625ZM6.68192 7.26575C6.66216 7.26575 6.64321 7.2736 6.62924 7.28757C6.61527 7.30154 6.60742 7.32049 6.60742 7.34024L6.60742 19.9362C6.60742 19.956 6.61527 19.9749 6.62924 19.9889C6.64321 20.0029 6.66216 20.0107 6.68192 20.0107L25.5759 20.0107C25.5956 20.0107 25.6146 20.0029 25.6286 19.9889C25.6425 19.9749 25.6504 19.956 25.6504 19.9362L25.6504 7.34024C25.6504 7.32049 25.6425 7.30154 25.6286 7.28757C25.6146 7.2736 25.5956 7.26575 25.5759 7.26575L6.68192 7.26575ZM9.11816 26.2342C9.11816 25.4058 9.78974 24.7342 10.6182 24.7342L21.6396 24.7342C22.4681 24.7342 23.1396 25.4058 23.1396 26.2342C23.1396 27.0626 22.4681 27.7342 21.6396 27.7342L10.6182 27.7342C9.78974 27.7342 9.11816 27.0626 9.11816 26.2342Z" fill="#F6F5F0"/>
</svg>
