<svg width="33" height="32" viewBox="0 0 33 32" fill="none" xmlns="http://www.w3.org/2000/svg">
<path fill-rule="evenodd" clip-rule="evenodd" d="M5.79565 5.33466C5.79565 4.78237 6.24337 4.33466 6.79565 4.33466L20.129 4.33466C20.6813 4.33466 21.129 4.78237 21.129 5.33466C21.129 5.88694 20.6813 6.33466 20.129 6.33466L7.79565 6.33466L7.79565 24.0013C7.79565 24.4433 7.97125 24.8673 8.28381 25.1798C8.59637 25.4924 9.02029 25.668 9.46232 25.668L20.129 25.668C20.6813 25.668 21.129 26.1157 21.129 26.668C21.129 27.2203 20.6813 27.668 20.129 27.668L9.46232 27.668C8.48986 27.668 7.55723 27.2817 6.8696 26.594C6.18196 25.9064 5.79565 24.9738 5.79565 24.0013L5.79565 5.33466ZM20.7552 11.2942C21.1457 10.9037 21.7789 10.9037 22.1694 11.2942L26.1694 15.2942C26.56 15.6847 26.56 16.3179 26.1694 16.7084L22.1694 20.7084C21.7789 21.099 21.1457 21.099 20.7552 20.7084C20.3647 20.3179 20.3647 19.6847 20.7552 19.2942L23.0481 17.0013L12.129 17.0013C11.5767 17.0013 11.129 16.5536 11.129 16.0013C11.129 15.449 11.5767 15.0013 12.129 15.0013L23.0481 15.0013L20.7552 12.7084C20.3647 12.3179 20.3647 11.6847 20.7552 11.2942Z" fill="#F6F5F0"/>
</svg>
