<svg width="15" height="15" viewBox="0 0 15 15" fill="none" xmlns="http://www.w3.org/2000/svg">
<path fill-rule="evenodd" clip-rule="evenodd" d="M10.916 3.0713C10.3856 2.56186 9.76007 2.16187 9.07512 1.89417C8.39016 1.62648 7.65919 1.49631 6.92393 1.51111C6.18867 1.52592 5.46353 1.68539 4.7899 1.98044C3.42945 2.57631 2.36143 3.68821 1.82079 5.07154C1.28015 6.45487 1.31118 7.9963 1.90705 9.35676C2.50292 10.7172 3.61483 11.7852 4.99816 12.3259C6.38148 12.8665 7.92292 12.8355 9.28337 12.2396C9.957 11.9446 10.5659 11.5197 11.0754 10.9893C11.5848 10.459 11.9848 9.83346 12.2525 9.1485C12.5202 8.46354 12.6503 7.73257 12.6355 6.99731C12.6207 6.26205 12.4613 5.53691 12.1662 4.86328C11.8712 4.18966 11.4463 3.58074 10.916 3.0713ZM9.58472 0.59026C10.4409 0.924879 11.2228 1.42486 11.8858 2.06166C12.5487 2.69845 13.0798 3.45959 13.4486 4.30162C13.8174 5.14365 14.0167 6.05007 14.0352 6.96914C14.0537 7.8882 13.891 8.80191 13.5564 9.6581C13.2218 10.5143 12.7218 11.2962 12.085 11.9591C11.4482 12.6221 10.6871 13.1531 9.84504 13.522C8.14448 14.2668 6.2177 14.3056 4.48855 13.6298C2.75941 12.954 1.36954 11.619 0.624704 9.91842C-0.120128 8.21787 -0.158916 6.29109 0.516878 4.56194C1.19267 2.83279 2.52769 1.44292 4.22824 0.698088C5.07026 0.329283 5.97669 0.12994 6.89575 0.111439C7.81482 0.0929373 8.72853 0.255642 9.58472 0.59026ZM6.34944 2.9297C6.73593 2.93815 7.0424 3.25831 7.03396 3.64481L6.94423 7.75003L9.33031 8.12686C9.71216 8.18717 9.97283 8.54561 9.91252 8.92747C9.85221 9.30932 9.49377 9.56999 9.11191 9.50968L6.12186 9.03746C5.77591 8.98282 5.52359 8.68091 5.53125 8.33075L5.63433 3.61422C5.64278 3.22772 5.96294 2.92126 6.34944 2.9297Z" fill="#4A4A4A"/>
</svg>
