<svg width="38" height="41" viewBox="0 0 38 41" fill="none" xmlns="http://www.w3.org/2000/svg">
<path d="M8.63367 18.5215V17.456C8.63367 17.366 8.67134 17.2989 8.76212 17.2989C8.88158 17.2989 8.91112 17.4189 8.94109 17.4788C9.11236 17.8915 9.6129 18.7698 10.0757 19.2862C10.3892 19.6305 10.7775 19.8491 11.189 19.8491C11.8831 19.8491 12.465 19.2414 12.465 18.5886C12.465 18.1837 12.2937 17.8833 11.9653 17.5235C11.5469 17.0656 11.0546 16.4653 10.8751 16.1895C10.8314 16.1307 10.8056 16.0604 10.8006 15.9872C10.8006 15.9041 10.8435 15.8443 10.9351 15.7621C11.144 15.5667 11.6591 15.0792 11.943 14.6368C12.1592 14.299 12.2487 13.9913 12.2487 13.7365C12.2487 13.0837 11.6591 12.5746 11.0173 12.5746C10.6067 12.5746 10.2183 12.8074 9.95715 13.2347C9.60647 13.8053 9.18644 14.4655 8.91968 14.728C8.85246 14.7956 8.81478 14.8106 8.76297 14.8106C8.67349 14.8106 8.63452 14.7504 8.63452 14.6527V13.9C8.63367 13.165 8.20078 12.5711 7.41723 12.5711C6.62597 12.5711 6.20036 13.1641 6.20036 13.8992V18.5215C6.20036 19.2569 6.62597 19.8495 7.41723 19.8495C8.20078 19.8495 8.63367 19.2569 8.63367 18.5215Z" fill="white"/>
<path d="M1.29211 30.8859C0.600116 30.8859 0.289062 31.3579 0.289062 32.184C0.289062 33.6349 1.23319 35.6584 3.09814 37.1413C6.20387 39.6204 11.5308 40.3333 18.9002 40.3333C26.2696 40.3333 31.5972 39.6252 34.7029 37.1413C36.5665 35.6584 37.512 33.6339 37.512 32.184C37.512 31.3579 37.2017 30.8859 36.5083 30.8859H1.29211Z" fill="white"/>
<path d="M36.5082 11.2721C37.2016 11.2721 37.512 10.9334 37.512 10.3241C37.512 6.71138 31.6466 0.333008 18.9002 0.333008C6.03528 0.333008 0.289062 6.71138 0.289062 10.3241C0.289062 10.9334 0.60015 11.2721 1.29222 11.2721H36.5082Z" fill="white"/>
<path d="M4.86348 16.0144C4.80807 15.9691 4.75137 15.9237 4.75137 15.8784C4.75137 15.8221 4.78552 15.7994 4.84157 15.732C5.12747 15.3918 5.27923 14.9579 5.26809 14.5127C5.26809 13.158 4.35836 12.4354 2.94287 12.4354H1.6034C0.716223 12.4354 0.289062 12.9534 0.289062 13.6547V18.6331C0.289062 19.3318 0.716223 19.8498 1.6034 19.8498H3.18834C4.68179 19.8498 5.59216 18.8448 5.59216 17.5918C5.59088 16.5901 4.99556 16.1271 4.86348 16.0144ZM2.26637 14.3774C2.26637 14.2304 2.35593 14.1184 2.54663 14.1184H2.69289C3.1761 14.1184 3.32235 14.457 3.32235 14.7504C3.32235 15.021 3.1761 15.405 2.69289 15.405H2.54406C2.35077 15.405 2.26379 15.2924 2.26379 15.146L2.26637 14.3774ZM2.74894 18.1591H2.54406C2.35077 18.1591 2.26379 18.0464 2.26379 17.9V17.0194C2.26379 16.8717 2.35335 16.7604 2.54406 16.7604H2.74636C3.28563 16.7604 3.44283 17.1217 3.44283 17.4494C3.44605 17.7414 3.2882 18.1591 2.74894 18.1591Z" fill="white"/>
<path d="M32.2059 28.3772C32.0183 28.3772 31.88 28.3278 31.7714 28.2291C31.6628 28.1303 31.6134 28.002 31.6134 27.8539C31.6134 27.7452 31.643 27.6366 31.7122 27.528C31.8899 27.2417 31.9788 26.8763 31.9788 26.4517V23.3908C31.9788 22.9662 31.8899 22.6009 31.7122 22.3145C31.643 22.2059 31.6134 22.0973 31.6134 21.9887C31.6134 21.8406 31.6628 21.7122 31.7714 21.6135C31.88 21.5147 32.0183 21.4653 32.2059 21.4653H35.7408C35.9876 21.4653 36.1752 21.5246 36.3233 21.653C36.4616 21.7813 36.5406 21.9591 36.5702 22.2059L36.6294 22.7786C36.6492 22.9662 36.6097 23.1242 36.5208 23.2427C36.432 23.3612 36.2838 23.4204 36.0962 23.4204C35.958 23.4204 35.8494 23.3908 35.7704 23.3217C35.6815 23.2624 35.6025 23.1538 35.5137 23.0057C35.4445 22.8872 35.3458 22.7983 35.2174 22.7391C35.0792 22.6799 34.9212 22.6502 34.7435 22.6502H33.9141C33.7265 22.6502 33.6376 22.7391 33.6376 22.9267V23.9339C33.6376 24.1215 33.7265 24.2103 33.9141 24.2103H34.4473C34.5559 24.2103 34.6448 24.1807 34.7237 24.1313C34.8027 24.082 34.862 24.0227 34.8916 23.9437C34.9706 23.7463 35.1187 23.6475 35.3261 23.6475C35.5729 23.6475 35.721 23.766 35.7605 24.0129C35.8 24.2597 35.8198 24.5066 35.8198 24.7633C35.8198 25.0101 35.8 25.2669 35.7605 25.5236C35.721 25.7704 35.5729 25.8889 35.3261 25.8889C35.1187 25.8889 34.9805 25.7902 34.8916 25.5927C34.862 25.5038 34.8027 25.4347 34.7237 25.3853C34.6448 25.336 34.5559 25.3162 34.4473 25.3162H33.9141C33.7265 25.3162 33.6376 25.4051 33.6376 25.5927V26.9158C33.6376 27.1034 33.7265 27.1923 33.9141 27.1923H34.8817C35.3063 27.1923 35.5828 27.0244 35.721 26.6986L35.8099 26.4912C35.8691 26.3629 35.9383 26.2641 36.0271 26.195C36.116 26.1259 36.2246 26.0963 36.3628 26.0963C36.5307 26.0963 36.6591 26.1456 36.7479 26.2543C36.8368 26.3629 36.8763 26.5011 36.8664 26.6788L36.817 27.607C36.7874 28.1205 36.5208 28.3772 36.0172 28.3772H32.2059Z" fill="white"/>
<path d="M25.8417 28.3772C25.6541 28.3772 25.5159 28.3278 25.4073 28.2291C25.2987 28.1303 25.2493 28.002 25.2493 27.8539C25.2493 27.7452 25.2789 27.6366 25.348 27.528C25.5258 27.2417 25.6146 26.8763 25.6146 26.4517V23.3908C25.6146 22.9662 25.5258 22.6009 25.348 22.3145C25.2789 22.2059 25.2493 22.0973 25.2493 21.9887C25.2493 21.8406 25.2987 21.7122 25.4073 21.6135C25.5159 21.5147 25.6541 21.4653 25.8417 21.4653H28.1621C28.6855 21.4653 29.1397 21.5443 29.5149 21.7122C29.8802 21.8801 30.1666 22.117 30.3542 22.4034C30.5418 22.6897 30.6306 23.0156 30.6306 23.3612C30.6306 23.7068 30.5418 24.0227 30.364 24.3091C30.1764 24.5954 29.9493 24.8028 29.6729 24.9509C29.6136 24.9805 29.584 25.0101 29.584 25.0496C29.584 25.0793 29.6136 25.1187 29.6827 25.1484C29.8901 25.257 30.0481 25.3853 30.1666 25.5532C30.2752 25.7211 30.3542 25.9284 30.3937 26.1753C30.4529 26.5406 30.5319 26.8171 30.6405 27.0146C30.7491 27.212 30.8972 27.4095 31.0848 27.6169C31.1737 27.7255 31.2231 27.8341 31.2231 27.9526C31.2231 28.0711 31.1836 28.1698 31.1046 28.2488C31.0256 28.3377 30.917 28.3772 30.7787 28.3772H29.6827C29.2976 28.3772 29.0804 28.1995 29.0409 27.8539C29.031 27.8242 29.031 27.7749 29.0212 27.7255C29.0113 27.6761 29.0113 27.607 29.0014 27.528C28.9718 27.3305 28.9224 26.9948 28.8731 26.5209C28.8336 26.195 28.7447 25.9679 28.6065 25.8396C28.4583 25.7112 28.2115 25.6519 27.8659 25.6519H27.5499C27.3623 25.6519 27.2735 25.7408 27.2735 25.9284V26.4517C27.2735 26.6887 27.2932 26.8862 27.3426 27.0541C27.3821 27.2219 27.4512 27.3799 27.5401 27.528C27.6092 27.6366 27.6388 27.7452 27.6388 27.8539C27.6388 28.002 27.5894 28.1303 27.4808 28.2291C27.3722 28.3278 27.234 28.3772 27.0464 28.3772H25.8417ZM27.9943 24.4671C28.3201 24.4671 28.5768 24.3881 28.7644 24.2301C28.9422 24.082 29.031 23.8549 29.031 23.5586C29.031 23.2624 28.9422 23.0353 28.7644 22.8773C28.5768 22.7292 28.3201 22.6502 27.9943 22.6502H27.5499C27.3623 22.6502 27.2735 22.7391 27.2735 22.9267V24.1906C27.2735 24.3782 27.3623 24.4671 27.5499 24.4671H27.9943Z" fill="white"/>
<path d="M21.702 28.5154C21.2182 28.5154 20.7837 28.4068 20.3987 28.1995C20.0037 27.9921 19.6877 27.6761 19.4606 27.2713C19.2335 26.8665 19.115 26.3826 19.115 25.8198V23.3908C19.115 22.9662 19.0262 22.6009 18.8484 22.3145C18.7793 22.2059 18.7497 22.0973 18.7497 21.9887C18.7497 21.8406 18.7991 21.7122 18.9077 21.6135C19.0163 21.5147 19.1545 21.4653 19.3421 21.4653H20.5468C20.7344 21.4653 20.8726 21.5147 20.9812 21.6135C21.0898 21.7122 21.1392 21.8406 21.1392 21.9887C21.1392 22.0973 21.1096 22.2059 21.0405 22.3145C20.9516 22.4626 20.8825 22.6107 20.843 22.7786C20.7936 22.9465 20.7739 23.1538 20.7739 23.3908V25.7606C20.7739 26.2148 20.8825 26.5604 21.0997 26.7875C21.3169 27.0244 21.6329 27.1429 22.0377 27.1429C22.3932 27.1429 22.6796 27.0244 22.8869 26.7973C23.0943 26.5702 23.2029 26.2345 23.2029 25.8001V23.3908C23.2029 23.1538 23.1831 22.9465 23.1436 22.7786C23.0943 22.6107 23.0251 22.4626 22.9363 22.3145C22.8672 22.2059 22.8375 22.0973 22.8375 21.9887C22.8375 21.8406 22.8869 21.7122 22.9955 21.6135C23.1041 21.5147 23.2424 21.4653 23.43 21.4653H24.2397C24.4273 21.4653 24.5655 21.5147 24.6741 21.6135C24.7827 21.7122 24.8321 21.8406 24.8321 21.9887C24.8321 22.0973 24.8025 22.2059 24.7334 22.3145C24.6445 22.4626 24.5754 22.6107 24.5359 22.7786C24.4865 22.9465 24.4668 23.1538 24.4668 23.3908V25.9185C24.4668 26.7578 24.2199 27.3997 23.7361 27.844C23.2424 28.2883 22.5611 28.5154 21.702 28.5154Z" fill="white"/>
<path d="M14.7558 28.3772C14.5682 28.3772 14.4299 28.3278 14.3213 28.2291C14.2127 28.1303 14.1633 28.002 14.1633 27.8539C14.1633 27.7452 14.193 27.6366 14.2621 27.528C14.3509 27.3799 14.4201 27.2219 14.4694 27.0541C14.5089 26.8862 14.5287 26.6887 14.5287 26.4517L14.5596 23.2173C14.5596 23.1185 14.5308 23.3215 14.4814 23.2622C14.4222 23.2129 14.3016 23.1509 14.2028 23.1509L14.1377 22.9662C13.9303 22.9662 14.2052 22.8837 14.1064 23.022C13.9978 23.1602 13.561 23.2131 13.5117 23.4994C13.482 23.6574 13.4228 23.7857 13.3142 23.8746C13.2056 23.9635 13.0772 24.0129 12.9291 24.0129C12.7415 24.0129 12.5835 23.9536 12.4749 23.8351C12.3663 23.7166 12.1172 23.5482 12.127 23.3606L12.1863 22.1954C12.1962 21.9584 12.4749 21.7813 12.623 21.653C12.7711 21.5246 12.9686 21.4653 13.2154 21.4653H17.5008C17.7476 21.4653 18.1547 21.5144 18.3028 21.6428C18.4509 21.7712 18.5201 21.9588 18.5299 22.1957L18.5892 23.3609C18.5991 23.5485 18.3499 23.7166 18.2413 23.8351C18.1327 23.9536 17.9747 24.0129 17.7871 24.0129C17.639 24.0129 17.5106 23.9635 17.402 23.8746C17.2934 23.7857 17.2342 23.6574 17.2045 23.4994C17.1552 23.2131 17.0762 23.3232 16.9774 23.185C16.8688 23.0467 16.7591 22.9087 16.5518 22.9087L16.5035 22.9776C16.4048 22.9776 16.3258 23.0072 16.2764 23.0566C16.2171 23.1159 16.2189 23.1635 16.2189 23.2622L16.1875 26.4517C16.1875 26.6887 16.2073 26.8862 16.2566 27.0541C16.2961 27.2219 16.3653 27.3799 16.4541 27.528C16.5232 27.6366 16.5529 27.7452 16.5529 27.8539C16.5529 28.002 16.5035 28.1303 16.3949 28.2291C16.2863 28.3278 16.148 28.3772 15.9604 28.3772H14.7558Z" fill="white"/>
<path d="M8.83876 28.5154C8.35493 28.5154 7.92047 28.4068 7.53538 28.1995C7.14042 27.9921 6.82445 27.6761 6.59735 27.2713C6.37024 26.8665 6.25176 26.3826 6.25176 25.8198V23.3908C6.25176 22.9662 6.16289 22.6009 5.98516 22.3145C5.91604 22.2059 5.88642 22.0973 5.88642 21.9887C5.88642 21.8406 5.93579 21.7122 6.0444 21.6135C6.15302 21.5147 6.29125 21.4653 6.47886 21.4653H7.68349C7.8711 21.4653 8.00934 21.5147 8.11795 21.6135C8.22657 21.7122 8.27594 21.8406 8.27594 21.9887C8.27594 22.0973 8.24632 22.2059 8.1772 22.3145C8.08833 22.4626 8.01921 22.6107 7.97972 22.7786C7.93035 22.9465 7.9106 23.1538 7.9106 23.3908V25.7606C7.9106 26.2148 8.01921 26.5604 8.23644 26.7875C8.45367 27.0244 8.76964 27.1429 9.17448 27.1429C9.52994 27.1429 9.81629 27.0244 10.0236 26.7973C10.231 26.5702 10.3396 26.2345 10.3396 25.8001V23.3908C10.3396 23.1538 10.3199 22.9465 10.2804 22.7786C10.231 22.6107 10.1619 22.4626 10.073 22.3145C10.0039 22.2059 9.97427 22.0973 9.97427 21.9887C9.97427 21.8406 10.0236 21.7122 10.1323 21.6135C10.2409 21.5147 10.3791 21.4653 10.5667 21.4653H11.3764C11.564 21.4653 11.7022 21.5147 11.8108 21.6135C11.9195 21.7122 11.9688 21.8406 11.9688 21.9887C11.9688 22.0973 11.9392 22.2059 11.8701 22.3145C11.7812 22.4626 11.7121 22.6107 11.6726 22.7786C11.6232 22.9465 11.6035 23.1538 11.6035 23.3908V25.9185C11.6035 26.7578 11.3566 27.3997 10.8728 27.844C10.3791 28.2883 9.6978 28.5154 8.83876 28.5154Z" fill="white"/>
<path d="M1.09873 28.3772C0.911128 28.3772 0.772891 28.3278 0.664277 28.2291C0.555662 28.1303 0.506292 28.002 0.506292 27.8539C0.506292 27.7452 0.535914 27.6366 0.605032 27.528C0.782765 27.2417 0.871632 26.8763 0.871632 26.4517V23.3908C0.871632 22.9662 0.613377 22.7072 0.435644 22.4209C0.366525 22.3122 0.506292 22.0973 0.506292 21.9887C0.506292 21.8406 0.555662 21.7122 0.664277 21.6135C0.772891 21.5147 0.911128 21.4653 1.09873 21.4653H4.63365C4.8805 21.4653 5.0681 21.5246 5.21622 21.653C5.35445 21.7813 5.43344 21.9591 5.46307 22.2059L5.72121 22.7577C5.74096 22.9453 5.59098 23.2421 5.50211 23.3606C5.41325 23.479 5.17672 23.6204 4.98911 23.6204C4.85088 23.6204 4.74226 23.5908 4.66327 23.5217C4.5744 23.4624 4.49541 23.3538 4.40654 23.2057C4.33742 23.0872 4.23868 22.9983 4.11032 22.9391C3.97208 22.8799 3.8141 22.8502 3.63637 22.8502H2.80695C2.61934 22.8502 2.53047 22.7391 2.53047 22.9267V24.2301C2.53047 24.4177 2.61934 24.5066 2.80695 24.5066H3.42901C3.53763 24.5066 3.62649 24.4769 3.70549 24.4276C3.78448 24.3782 3.84372 24.3189 3.87334 24.24C3.95234 24.0425 4.10045 23.9437 4.3078 23.9437C4.55465 23.9437 4.70276 24.0622 4.74226 24.3091C4.78176 24.5559 4.80151 24.8028 4.80151 25.0595C4.80151 25.3064 4.78176 25.5631 4.74226 25.8198C4.70276 26.0667 4.55465 26.1851 4.3078 26.1851C4.10045 26.1851 3.96221 26.0864 3.87334 25.8889C3.84372 25.8001 3.78448 25.7309 3.70549 25.6816C3.62649 25.6322 3.53763 25.6124 3.42901 25.6124H2.80695C2.61934 25.6124 2.53047 25.7013 2.53047 25.8889V26.4517C2.53047 26.6887 2.55022 26.8862 2.59959 27.0541C2.63909 27.2219 2.70821 27.3799 2.79707 27.528C2.86619 27.6366 2.89581 27.7452 2.89581 27.8539C2.89581 28.002 2.84644 28.1303 2.73783 28.2291C2.62921 28.3278 2.49098 28.3772 2.30337 28.3772H1.09873Z" fill="white"/>
<path fill-rule="evenodd" clip-rule="evenodd" d="M36.817 27.607C36.7874 28.1205 36.5208 28.3772 36.0172 28.3772H32.2059C32.0183 28.3772 31.88 28.3278 31.7714 28.2291C31.6628 28.1303 31.6134 28.002 31.6134 27.8539C31.6134 27.7452 31.643 27.6366 31.7122 27.528C31.8899 27.2417 31.9788 26.8763 31.9788 26.4517V23.3908C31.9788 22.9662 31.8899 22.6009 31.7122 22.3145C31.643 22.2059 31.6134 22.0973 31.6134 21.9887C31.6134 21.8406 31.6628 21.7122 31.7714 21.6135C31.88 21.5147 32.0183 21.4653 32.2059 21.4653H35.7408C35.9876 21.4653 36.1752 21.5246 36.3233 21.653C36.4616 21.7813 36.5406 21.9591 36.5702 22.2059L36.6294 22.7786C36.6492 22.9662 36.6097 23.1242 36.5208 23.2427C36.432 23.3612 36.2838 23.4204 36.0962 23.4204C35.958 23.4204 35.8494 23.3908 35.7704 23.3217C35.6815 23.2624 35.6025 23.1538 35.5137 23.0057C35.4445 22.8872 35.3458 22.7983 35.2174 22.7391C35.0792 22.6799 34.9212 22.6502 34.7435 22.6502H33.9141C33.7265 22.6502 33.6376 22.7391 33.6376 22.9267V23.9339C33.6376 24.1215 33.7265 24.2103 33.9141 24.2103H34.4473C34.5559 24.2103 34.6448 24.1807 34.7237 24.1313C34.8027 24.082 34.862 24.0227 34.8916 23.9437C34.9706 23.7463 35.1187 23.6475 35.3261 23.6475C35.5729 23.6475 35.721 23.766 35.7605 24.0129C35.8 24.2597 35.8198 24.5066 35.8198 24.7633C35.8198 25.0101 35.8 25.2669 35.7605 25.5236C35.721 25.7704 35.5729 25.8889 35.3261 25.8889C35.1187 25.8889 34.9805 25.7902 34.8916 25.5927C34.862 25.5038 34.8027 25.4347 34.7237 25.3853C34.6448 25.336 34.5559 25.3162 34.4473 25.3162H33.9141C33.7265 25.3162 33.6376 25.4051 33.6376 25.5927V26.9158C33.6376 27.1034 33.7265 27.1923 33.9141 27.1923H34.8817C35.3063 27.1923 35.5828 27.0244 35.721 26.6986L35.8099 26.4912C35.8691 26.3629 35.9383 26.2641 36.0271 26.195C36.116 26.1259 36.2246 26.0963 36.3628 26.0963C36.5307 26.0963 36.6591 26.1456 36.7479 26.2543C36.8368 26.3629 36.8763 26.5011 36.8664 26.6788L36.817 27.607ZM37.0661 26.6899C37.078 26.475 37.0303 26.2835 36.9027 26.1276C36.7656 25.96 36.5723 25.8963 36.3628 25.8963C36.195 25.8963 36.0385 25.9328 35.9043 26.0371C35.7816 26.1326 35.6955 26.2619 35.6283 26.4074L35.5372 26.6198C35.4828 26.748 35.4055 26.837 35.3068 26.8956C35.2059 26.9554 35.0683 26.9923 34.8817 26.9923H33.9141C33.8711 26.9923 33.8528 26.9856 33.8472 26.9827C33.8443 26.977 33.8376 26.9588 33.8376 26.9158V25.5927C33.8376 25.5497 33.8443 25.5315 33.8472 25.5258C33.8529 25.523 33.8711 25.5162 33.9141 25.5162H34.4473C34.5305 25.5162 34.5794 25.531 34.6177 25.5549C34.6624 25.5829 34.6887 25.6166 34.7019 25.6559C34.704 25.6623 34.7065 25.6686 34.7092 25.6748C34.7643 25.7972 34.8416 25.9042 34.9509 25.9795C35.0614 26.0558 35.1892 26.0889 35.3261 26.0889C35.4806 26.0889 35.6297 26.0516 35.7488 25.9527C35.8687 25.8531 35.9329 25.7122 35.958 25.5552L35.9582 25.554C35.9992 25.2875 36.0198 25.0206 36.0198 24.7633C36.0198 24.496 35.9992 24.2386 35.958 23.9813C35.9329 23.8243 35.8687 23.6833 35.7488 23.5838C35.6297 23.4848 35.4806 23.4475 35.3261 23.4475C35.1899 23.4475 35.0602 23.4803 34.9485 23.556C34.8368 23.6317 34.7574 23.7407 34.7059 23.8695L34.7043 23.8735C34.6954 23.8973 34.6746 23.9262 34.6177 23.9617C34.5682 23.9927 34.5158 24.0103 34.4473 24.0103H33.9141C33.8711 24.0103 33.8529 24.0036 33.8472 24.0008C33.8443 23.9951 33.8376 23.9768 33.8376 23.9339V22.9267C33.8376 22.8838 33.8443 22.8655 33.8472 22.8598C33.8529 22.857 33.8711 22.8502 33.9141 22.8502H34.7435C34.8978 22.8502 35.0274 22.8757 35.1361 22.9218C35.2272 22.9644 35.2935 23.0253 35.3409 23.1065L35.3422 23.1086C35.4281 23.2519 35.5238 23.3932 35.6487 23.4807C35.7765 23.5872 35.9363 23.6204 36.0962 23.6204C36.324 23.6204 36.5423 23.5473 36.6808 23.3627C36.8057 23.1961 36.8522 22.9851 36.8284 22.758M36.8284 22.758L36.7692 22.1853L36.7688 22.1821C36.7354 21.9037 36.6423 21.6762 36.4594 21.5064L36.4543 21.5018C36.2604 21.3338 36.0216 21.2653 35.7408 21.2653H32.2059C31.9795 21.2653 31.7897 21.3265 31.6369 21.4655C31.4811 21.607 31.4134 21.792 31.4134 21.9887C31.4134 22.136 31.4543 22.2814 31.5428 22.4209C31.6956 22.6675 31.7788 22.9933 31.7788 23.3908V26.4517C31.7788 26.8492 31.6956 27.1751 31.5428 27.4217C31.4543 27.5611 31.4134 27.7065 31.4134 27.8539C31.4134 28.0506 31.4811 28.2355 31.6369 28.3771C31.7897 28.516 31.9795 28.5772 32.2059 28.5772H36.0172C36.3017 28.5772 36.5513 28.5043 36.7336 28.3287C36.9153 28.1538 37.0001 27.9058 37.0167 27.6185L37.0661 26.6899" fill="white"/>
<path fill-rule="evenodd" clip-rule="evenodd" d="M29.5965 21.5296L29.5984 21.5305C29.9923 21.7115 30.3101 21.9713 30.5215 22.2938C30.7323 22.6156 30.8306 22.9802 30.8306 23.3612C30.8306 23.743 30.7319 24.0957 30.534 24.4145L30.5314 24.4187C30.358 24.6833 30.1514 24.8891 29.9062 25.0458C30.0758 25.1515 30.2171 25.278 30.33 25.4379L30.3346 25.4445C30.4602 25.6385 30.5478 25.8729 30.5912 26.1437C30.6491 26.5009 30.7235 26.7505 30.8158 26.9182C30.9147 27.0981 31.0524 27.2829 31.2332 27.4827L31.2398 27.4901C31.347 27.621 31.4231 27.7732 31.4231 27.9526C31.4231 28.1186 31.3663 28.2678 31.2501 28.3861C31.1238 28.5253 30.9557 28.5772 30.7787 28.5772H29.6827C29.4614 28.5772 29.2603 28.5262 29.1058 28.4001C28.9526 28.2751 28.8706 28.0971 28.8442 27.8929C28.8411 27.8804 28.8391 27.8691 28.8376 27.8601C28.8352 27.8452 28.8335 27.8303 28.8323 27.8192L28.8317 27.814C28.8292 27.7915 28.8277 27.7779 28.8251 27.7647C28.8173 27.7259 28.8142 27.6839 28.8118 27.6526L28.811 27.6418C28.8088 27.6117 28.8068 27.5842 28.8033 27.5552C28.7734 27.3562 28.7239 27.0186 28.6743 26.5434C28.637 26.237 28.5577 26.069 28.4729 25.9885C28.3807 25.9104 28.1969 25.8519 27.8659 25.8519H27.5499C27.5069 25.8519 27.4887 25.8587 27.483 25.8615C27.4802 25.8672 27.4735 25.8854 27.4735 25.9284V26.4517C27.4735 26.6793 27.4927 26.8555 27.5345 26.9976L27.5376 27.0082C27.5713 27.1518 27.6308 27.29 27.7103 27.423C27.7982 27.5621 27.8388 27.707 27.8388 27.8539C27.8388 28.0506 27.7711 28.2355 27.6154 28.3771C27.4625 28.516 27.2727 28.5772 27.0464 28.5772H25.8417C25.6154 28.5772 25.4256 28.516 25.2727 28.3771C25.117 28.2355 25.0493 28.0506 25.0493 27.8539C25.0493 27.7065 25.0901 27.5611 25.1786 27.4217C25.3314 27.1751 25.4146 26.8492 25.4146 26.4517V23.3908C25.4146 22.9933 25.3314 22.6675 25.1786 22.4209C25.0901 22.2814 25.0493 22.136 25.0493 21.9887C25.0493 21.792 25.117 21.607 25.2727 21.4655C25.4256 21.3265 25.6154 21.2653 25.8417 21.2653H28.1621C28.7042 21.2653 29.1883 21.347 29.5965 21.5296ZM25.348 22.3145C25.5258 22.6009 25.6146 22.9662 25.6146 23.3908V26.4517C25.6146 26.8763 25.5258 27.2417 25.348 27.528C25.2789 27.6366 25.2493 27.7452 25.2493 27.8539C25.2493 28.002 25.2987 28.1303 25.4073 28.2291C25.5159 28.3278 25.6541 28.3772 25.8417 28.3772H27.0464C27.234 28.3772 27.3722 28.3278 27.4808 28.2291C27.5894 28.1303 27.6388 28.002 27.6388 27.8539C27.6388 27.7452 27.6092 27.6366 27.5401 27.528C27.4512 27.3799 27.3821 27.2219 27.3426 27.0541C27.2932 26.8862 27.2735 26.6887 27.2735 26.4517V25.9284C27.2735 25.7408 27.3623 25.6519 27.5499 25.6519H27.8659C28.2115 25.6519 28.4583 25.7112 28.6065 25.8396C28.7447 25.9679 28.8336 26.195 28.8731 26.5209C28.9224 26.9948 28.9718 27.3305 29.0014 27.528C29.0058 27.5633 29.0083 27.5967 29.0105 27.6272C29.0133 27.6649 29.0157 27.6982 29.0212 27.7255C29.0256 27.7477 29.0281 27.77 29.0303 27.7904C29.033 27.8153 29.0355 27.8376 29.0409 27.8539C29.0804 28.1995 29.2976 28.3772 29.6827 28.3772H30.7787C30.917 28.3772 31.0256 28.3377 31.1046 28.2488C31.1836 28.1698 31.2231 28.0711 31.2231 27.9526C31.2231 27.8341 31.1737 27.7255 31.0848 27.6169M25.348 22.3145C25.2789 22.2059 25.2493 22.0973 25.2493 21.9887L25.348 22.3145ZM25.2493 21.9887C25.2493 21.8406 25.2987 21.7122 25.4073 21.6135L25.2493 21.9887ZM25.4073 21.6135C25.5159 21.5147 25.6541 21.4653 25.8417 21.4653L25.4073 21.6135ZM25.8417 21.4653H28.1621H25.8417ZM28.1621 21.4653C28.6855 21.4653 29.1397 21.5443 29.5149 21.7122L28.1621 21.4653ZM29.5149 21.7122C29.8802 21.8801 30.1666 22.117 30.3542 22.4034L29.5149 21.7122ZM30.3542 22.4034C30.5418 22.6897 30.6306 23.0156 30.6306 23.3612L30.3542 22.4034ZM30.6306 23.3612C30.6306 23.7068 30.5418 24.0227 30.364 24.3091L30.6306 23.3612ZM30.364 24.3091C30.1764 24.5954 29.9493 24.8028 29.6729 24.9509L30.364 24.3091ZM29.6729 24.9509C29.6136 24.9805 29.584 25.0101 29.584 25.0496L29.6729 24.9509ZM29.584 25.0496C29.584 25.0793 29.6136 25.1187 29.6827 25.1484L29.584 25.0496ZM29.6827 25.1484C29.8901 25.257 30.0481 25.3853 30.1666 25.5532L29.6827 25.1484ZM28.7644 24.2301C28.5768 24.3881 28.3201 24.4671 27.9943 24.4671H27.5499C27.3623 24.4671 27.2735 24.3782 27.2735 24.1906V22.9267C27.2735 22.7391 27.3623 22.6502 27.5499 22.6502H27.9943C28.3201 22.6502 28.5768 22.7292 28.7644 22.8773C28.9422 23.0353 29.031 23.2624 29.031 23.5586C29.031 23.8549 28.9422 24.082 28.7644 24.2301Z" fill="white"/>
<path fill-rule="evenodd" clip-rule="evenodd" d="M18.9077 21.6135L18.7731 21.4655C18.926 21.3265 19.1158 21.2653 19.3421 21.2653H20.5468C20.7731 21.2653 20.9629 21.3265 21.1158 21.4655L20.9812 21.6135C20.8726 21.5147 20.7344 21.4653 20.5468 21.4653H19.3421C19.1545 21.4653 19.0163 21.5147 18.9077 21.6135ZM18.8484 22.3145C18.7793 22.2059 18.7497 22.0973 18.7497 21.9887C18.7497 21.8406 18.7991 21.7122 18.9077 21.6135L18.7731 21.4655C18.6174 21.607 18.5497 21.792 18.5497 21.9887C18.5497 22.136 18.5905 22.2814 18.679 22.4209C18.8318 22.6675 18.915 22.9933 18.915 23.3908V25.8198C18.915 26.4111 19.0397 26.9297 19.2862 27.3691C19.5307 27.8049 19.8736 28.1494 20.3048 28.376C20.7205 28.5997 21.1875 28.7154 21.702 28.7154C22.5963 28.7154 23.3301 28.4784 23.8699 27.9927L23.8714 27.9913C24.4066 27.4998 24.6668 26.7984 24.6668 25.9185V23.3908C24.6668 23.1623 24.6861 22.9766 24.7278 22.835L24.7306 22.8244C24.7637 22.6834 24.8223 22.5554 24.9036 22.4195C24.9915 22.2805 25.0321 22.1356 25.0321 21.9887C25.0321 21.792 24.9644 21.607 24.8087 21.4655C24.6558 21.3265 24.466 21.2653 24.2397 21.2653H23.43C23.2037 21.2653 23.0138 21.3265 22.861 21.4655C22.7053 21.607 22.6375 21.792 22.6375 21.9887C22.6375 22.1356 22.6781 22.2805 22.766 22.4195C22.8462 22.5533 22.9067 22.6838 22.9502 22.8297C22.9843 22.9771 23.0029 23.1663 23.0029 23.3908V25.8001C23.0029 26.2036 22.902 26.4842 22.7392 26.6625C22.575 26.8424 22.3453 26.9429 22.0377 26.9429C21.6726 26.9429 21.4167 26.8373 21.2471 26.6523L21.2442 26.6492C21.0761 26.4734 20.9739 26.1868 20.9739 25.7606V23.3908C20.9739 23.1623 20.9932 22.9766 21.0349 22.835L21.0377 22.8244C21.0708 22.6834 21.1294 22.5554 21.2107 22.4195C21.2986 22.2805 21.3392 22.1356 21.3392 21.9887C21.3392 21.792 21.2715 21.607 21.1158 21.4655L20.9812 21.6135C21.0898 21.7122 21.1392 21.8406 21.1392 21.9887C21.1392 22.0973 21.1096 22.2059 21.0405 22.3145C20.9516 22.4626 20.8825 22.6107 20.843 22.7786C20.7936 22.9465 20.7739 23.1538 20.7739 23.3908V25.7606C20.7739 26.2148 20.8825 26.5604 21.0997 26.7875C21.3169 27.0244 21.6329 27.1429 22.0377 27.1429C22.3932 27.1429 22.6796 27.0244 22.8869 26.7973C23.0943 26.5702 23.2029 26.2345 23.2029 25.8001V23.3908C23.2029 23.1538 23.1831 22.9465 23.1436 22.7786C23.0943 22.6107 23.0251 22.4626 22.9363 22.3145C22.8672 22.2059 22.8375 22.0973 22.8375 21.9887C22.8375 21.8406 22.8869 21.7122 22.9955 21.6135C23.1041 21.5147 23.2424 21.4653 23.43 21.4653H24.2397C24.4273 21.4653 24.5655 21.5147 24.6741 21.6135C24.7827 21.7122 24.8321 21.8406 24.8321 21.9887C24.8321 22.0973 24.8025 22.2059 24.7334 22.3145C24.6445 22.4626 24.5754 22.6107 24.5359 22.7786C24.4865 22.9465 24.4668 23.1538 24.4668 23.3908V25.9185C24.4668 26.7578 24.2199 27.3997 23.7361 27.844C23.2424 28.2883 22.5611 28.5154 21.702 28.5154C21.2182 28.5154 20.7837 28.4068 20.3987 28.1995C20.0037 27.9921 19.6877 27.6761 19.4606 27.2713C19.2335 26.8665 19.115 26.3826 19.115 25.8198V23.3908C19.115 22.9662 19.0262 22.6009 18.8484 22.3145Z" fill="white"/>
<path fill-rule="evenodd" clip-rule="evenodd" d="M16.2764 23.0566C16.2171 23.1159 16.2189 23.1635 16.2189 23.2622L16.1875 26.4517C16.1875 26.6887 16.2073 26.8862 16.2566 27.0541C16.2961 27.2219 16.3653 27.3799 16.4541 27.528C16.5232 27.6366 16.5529 27.7452 16.5529 27.8539C16.5529 28.002 16.5035 28.1303 16.3949 28.2291C16.2863 28.3278 16.148 28.3772 15.9604 28.3772H14.7558C14.5682 28.3772 14.4299 28.3278 14.3213 28.2291C14.2127 28.1303 14.1633 28.002 14.1633 27.8539C14.1633 27.7452 14.193 27.6366 14.2621 27.528C14.3509 27.3799 14.4201 27.2219 14.4694 27.0541C14.5089 26.8862 14.5287 26.6887 14.5287 26.4517L14.5596 23.2173C14.5596 23.1185 14.5308 23.3215 14.4814 23.2622C14.4222 23.2129 14.3016 23.1509 14.2028 23.1509L14.1377 22.9662C13.9303 22.9662 14.2052 22.8837 14.1064 23.022C13.9978 23.1602 13.561 23.2131 13.5117 23.4994C13.482 23.6574 13.4228 23.7857 13.3142 23.8746C13.2056 23.9635 13.0772 24.0129 12.9291 24.0129C12.7415 24.0129 12.5835 23.9536 12.4749 23.8351C12.3663 23.7166 12.1172 23.5482 12.127 23.3606L12.1863 22.1954C12.1962 21.9584 12.4749 21.7813 12.623 21.653C12.7711 21.5246 12.9686 21.4653 13.2154 21.4653H17.5008C17.7476 21.4653 18.1547 21.5144 18.3028 21.6428C18.4509 21.7712 18.5201 21.9588 18.5299 22.1957L18.5892 23.3609C18.5991 23.5485 18.3499 23.7166 18.2413 23.8351C18.1327 23.9536 17.9747 24.0129 17.7871 24.0129C17.639 24.0129 17.5106 23.9635 17.402 23.8746C17.2934 23.7857 17.2342 23.6574 17.2045 23.4994C17.1552 23.2131 17.0762 23.3232 16.9774 23.185C16.8688 23.0467 16.7591 22.9087 16.5518 22.9087L16.5035 22.9776C16.4048 22.9776 16.3258 23.0072 16.2764 23.0566ZM16.8174 22.9776C16.752 22.8962 16.6658 22.8502 16.5134 22.8502H16.5035C16.4419 22.8502 16.4198 22.8687 16.4178 22.8706C16.4027 22.8857 16.3875 22.9103 16.3875 22.9662V26.4517C16.3875 26.6793 16.4067 26.8555 16.4485 26.9976L16.4516 27.0082C16.4854 27.1518 16.5448 27.2901 16.6244 27.4231C16.7123 27.5621 16.7529 27.707 16.7529 27.8539C16.7529 28.0506 16.6851 28.2355 16.5294 28.3771C16.3766 28.516 16.1867 28.5772 15.9604 28.5772H14.7558C14.5295 28.5772 14.3396 28.516 14.1868 28.3771C14.0311 28.2355 13.9633 28.0506 13.9633 27.8539C13.9633 27.707 14.0039 27.5621 14.0918 27.4231C14.1703 27.2919 14.2317 27.1519 14.276 27.0029C14.3102 26.8552 14.3287 26.6755 14.3287 26.4517V22.9662C14.3287 22.9219 14.3189 22.8925 14.3067 22.8722C14.2864 22.8601 14.257 22.8502 14.2127 22.8502H14.2028C14.046 22.8502 13.9651 22.8986 13.9114 22.9738L13.9061 22.9813C13.8277 23.081 13.756 23.2596 13.7087 23.5334L13.7083 23.5363C13.6736 23.7212 13.5987 23.9002 13.4408 24.0294C13.2981 24.1462 13.1255 24.2129 12.9291 24.2129C12.6992 24.2129 12.4824 24.1393 12.3274 23.9703C12.1756 23.8046 12.1149 23.5905 12.127 23.3606M16.8174 22.9776C16.8902 23.0816 16.961 23.264 17.0075 23.5334L17.008 23.5363C17.0427 23.7212 17.1175 23.9002 17.2754 24.0294C17.4181 24.1462 17.5908 24.2129 17.7871 24.2129C18.017 24.2129 18.2338 24.1393 18.3888 23.9703C18.5405 23.8047 18.6012 23.5907 18.5892 23.3609M18.5892 23.3609L18.53 22.1976L18.5892 23.3609Z" fill="white"/>
<path fill-rule="evenodd" clip-rule="evenodd" d="M8.1744 22.8244L8.17188 22.8351C8.13024 22.9767 8.1106 23.1623 8.1106 23.3908V25.7606C8.1106 26.1868 8.21284 26.4734 8.38097 26.6492L8.38391 26.6523C8.55344 26.8372 8.80932 26.9429 9.17448 26.9429C9.48199 26.9429 9.71171 26.8424 9.87595 26.6625C10.0387 26.4842 10.1396 26.2036 10.1396 25.8001V23.3908C10.1396 23.1663 10.121 22.9772 10.0869 22.8297C10.0435 22.6838 9.98288 22.5533 9.90276 22.4195C9.81486 22.2804 9.77427 22.1356 9.77427 21.9887C9.77427 21.792 9.84199 21.607 9.99772 21.4655C10.1506 21.3265 10.3404 21.2653 10.5667 21.2653H11.3764C11.6027 21.2653 11.7925 21.3265 11.9454 21.4655C12.1011 21.607 12.1688 21.792 12.1688 21.9887C12.1688 22.1356 12.1282 22.2804 12.0404 22.4195C11.959 22.5553 11.9005 22.6834 11.8673 22.8244L11.8648 22.8351C11.8231 22.9767 11.8035 23.1623 11.8035 23.3908V25.9185C11.8035 26.7984 11.5433 27.4998 11.0081 27.9913L11.0066 27.9927C10.4669 28.4784 9.73302 28.7154 8.83876 28.7154C8.32426 28.7154 7.85724 28.5997 7.44149 28.376C7.01031 28.1494 6.66739 27.8049 6.42292 27.3691C6.17642 26.9297 6.05176 26.4111 6.05176 25.8198V23.3908C6.05176 22.9933 5.96857 22.6675 5.81576 22.4209C5.72727 22.2814 5.68642 22.136 5.68642 21.9887C5.68642 21.792 5.75414 21.607 5.90987 21.4655C6.06272 21.3265 6.25253 21.2653 6.47886 21.2653H7.68349C7.90982 21.2653 8.09964 21.3265 8.25249 21.4655C8.40822 21.607 8.47594 21.792 8.47594 21.9887C8.47594 22.1356 8.43535 22.2804 8.34745 22.4195C8.26612 22.5553 8.20757 22.6834 8.1744 22.8244ZM8.1772 22.3145C8.24632 22.2059 8.27594 22.0973 8.27594 21.9887C8.27594 21.8406 8.22657 21.7122 8.11795 21.6135C8.00934 21.5147 7.8711 21.4653 7.68349 21.4653H6.47886C6.29125 21.4653 6.15302 21.5147 6.0444 21.6135C5.93579 21.7122 5.88642 21.8406 5.88642 21.9887C5.88642 22.0973 5.91604 22.2059 5.98516 22.3145C6.16289 22.6009 6.25176 22.9662 6.25176 23.3908V25.8198C6.25176 26.3826 6.37024 26.8665 6.59735 27.2713C6.82445 27.6761 7.14042 27.9921 7.53538 28.1995C7.92047 28.4068 8.35493 28.5154 8.83876 28.5154C9.6978 28.5154 10.3791 28.2883 10.8728 27.844C11.3566 27.3997 11.6035 26.7578 11.6035 25.9185V23.3908C11.6035 23.1538 11.6232 22.9465 11.6726 22.7786C11.7121 22.6107 11.7812 22.4626 11.8701 22.3145C11.9392 22.2059 11.9688 22.0973 11.9688 21.9887C11.9688 21.8406 11.9195 21.7122 11.8108 21.6135C11.7022 21.5147 11.564 21.4653 11.3764 21.4653H10.5667C10.3791 21.4653 10.2409 21.5147 10.1323 21.6135C10.0236 21.7122 9.97427 21.8406 9.97427 21.9887C9.97427 22.0973 10.0039 22.2059 10.073 22.3145C10.1619 22.4626 10.231 22.6107 10.2804 22.7786C10.3199 22.9465 10.3396 23.1538 10.3396 23.3908V25.8001C10.3396 26.2345 10.231 26.5702 10.0236 26.7973C9.81629 27.0244 9.52994 27.1429 9.17448 27.1429C8.76964 27.1429 8.45367 27.0244 8.23644 26.7875C8.01921 26.5604 7.9106 26.2148 7.9106 25.7606V23.3908C7.9106 23.1538 7.93035 22.9465 7.97972 22.7786C8.01921 22.6107 8.08833 22.4626 8.1772 22.3145Z" fill="white"/>
<path fill-rule="evenodd" clip-rule="evenodd" d="M0.664277 21.6135L0.529742 21.4655C0.682593 21.3265 0.872409 21.2653 1.09873 21.2653H4.63365C4.91444 21.2653 5.15328 21.3338 5.3472 21.5018L5.35239 21.5063C5.53528 21.6761 5.62824 21.9037 5.66164 22.1821L5.66203 22.1853L5.72121 22.7577M4.66327 23.5217C4.5744 23.4624 4.49541 23.3538 4.40654 23.2057C4.33742 23.0872 4.23868 22.9983 4.11032 22.9391C3.97208 22.8799 3.8141 22.8502 3.63637 22.8502H2.80695C2.61934 22.8502 2.53047 22.7391 2.53047 22.9267V24.2301C2.53047 24.4177 2.61934 24.5066 2.80695 24.5066H3.42901C3.53763 24.5066 3.62649 24.4769 3.70549 24.4276C3.78448 24.3782 3.84372 24.3189 3.87334 24.24C3.95234 24.0425 4.10045 23.9437 4.3078 23.9437C4.55465 23.9437 4.70276 24.0622 4.74226 24.3091C4.78176 24.5559 4.80151 24.8028 4.80151 25.0595C4.80151 25.3064 4.78176 25.5631 4.74226 25.8198C4.70276 26.0667 4.55465 26.1851 4.3078 26.1851C4.10045 26.1851 3.96221 26.0864 3.87334 25.8889C3.84372 25.8001 3.78448 25.7309 3.70549 25.6816C3.62649 25.6322 3.53763 25.6124 3.42901 25.6124H2.80695C2.61934 25.6124 2.53047 25.7013 2.53047 25.8889V26.4517C2.53047 26.6887 2.55022 26.8862 2.59959 27.0541C2.63909 27.2219 2.70821 27.3799 2.79707 27.528C2.86619 27.6366 2.89581 27.7452 2.89581 27.8539C2.89581 28.002 2.84644 28.1303 2.73783 28.2291C2.62921 28.3278 2.49098 28.3772 2.30337 28.3772H1.09873C0.911128 28.3772 0.772891 28.3278 0.664277 28.2291C0.555662 28.1303 0.506292 28.002 0.506292 27.8539C0.506292 27.7452 0.535914 27.6366 0.605032 27.528C0.782765 27.2417 0.871632 26.8763 0.871632 26.4517V23.3908C0.871632 22.9662 0.613377 22.7072 0.435644 22.4209C0.366525 22.3122 0.506292 22.0973 0.506292 21.9887C0.506292 21.8406 0.555662 21.7122 0.664277 21.6135C0.772891 21.5147 0.911128 21.4653 1.09873 21.4653H4.63365C4.8805 21.4653 5.0681 21.5246 5.21622 21.653C5.35445 21.7813 5.43344 21.9591 5.46307 22.2059M0.435644 22.4209C0.347146 22.2814 0.306292 22.136 0.306292 21.9887C0.306292 21.792 0.374012 21.607 0.529742 21.4655L0.664277 21.6135M0.435644 22.4209C0.588446 22.6675 0.671632 22.9933 0.671632 23.3908V26.4517C0.671632 26.8492 0.588445 27.175 0.43564 27.4217C0.347146 27.5611 0.306292 27.7065 0.306292 27.8539C0.306292 28.0506 0.374012 28.2355 0.529742 28.3771C0.682593 28.516 0.872409 28.5772 1.09873 28.5772H2.30337C2.5297 28.5772 2.71951 28.516 2.87236 28.3771C3.02809 28.2355 3.09581 28.0506 3.09581 27.8539C3.09581 27.707 3.05523 27.5621 2.96734 27.4231C2.88777 27.2901 2.82807 27.1519 2.79427 27.0083L2.79146 26.9976C2.74967 26.8555 2.73047 26.6793 2.73047 26.4517V25.8889C2.73047 25.8459 2.7372 25.8277 2.74005 25.822C2.74573 25.8192 2.76396 25.8124 2.80695 25.8124H3.42901C3.51223 25.8124 3.56117 25.8272 3.59948 25.8512C3.64417 25.8791 3.67049 25.9128 3.68361 25.9522C3.68574 25.9586 3.68819 25.9648 3.69096 25.971C3.74607 26.0935 3.82335 26.2004 3.93259 26.2757C4.04318 26.352 4.17096 26.3851 4.3078 26.3851C4.46232 26.3851 4.61145 26.3478 4.73057 26.2489C4.85048 26.1493 4.91463 26.0084 4.93975 25.8514L4.93994 25.8502C4.98093 25.5837 5.0015 25.3169 5.0015 25.0595C5.0015 24.7923 4.98093 24.5349 4.93975 24.2775C4.91463 24.1205 4.85048 23.9796 4.73057 23.88C4.61145 23.781 4.46232 23.7437 4.3078 23.7437C4.17168 23.7437 4.04191 23.7765 3.93021 23.8522C3.81852 23.928 3.73913 24.037 3.68765 24.1657L3.68608 24.1697C3.67715 24.1935 3.65631 24.2225 3.59949 24.258C3.54996 24.2889 3.4975 24.3066 3.42901 24.3066H2.80695C2.76396 24.3066 2.74573 24.2998 2.74005 24.297C2.7372 24.2913 2.73047 24.2731 2.73047 24.2301V22.9267C2.73047 22.8837 2.7372 22.8655 2.74005 22.8598C2.74573 22.857 2.76396 22.8502 2.80695 22.8502H3.63637C3.79064 22.8502 3.92025 22.8757 4.02896 22.9218C4.12005 22.9644 4.2358 22.66 4.28317 22.7412L4.40654 22.8931C4.49252 23.0364 4.35654 22.6702 4.48145 22.7577" fill="white"/>
<path d="M35.8084 12.3517L34.3463 16.2797L31.6756 13.0495L35.8084 12.3517Z" fill="white"/>
<path fill-rule="evenodd" clip-rule="evenodd" d="M34.1031 13.8863C34.356 14.2639 34.255 14.775 33.8774 15.0279L27.1636 19.5249C26.9809 19.6473 26.7568 19.6914 26.5414 19.6475C26.3259 19.6036 26.137 19.4753 26.0167 19.2911L23.8534 15.978L15.8069 20.3642C15.4079 20.5817 14.9081 20.4345 14.6906 20.0355C14.4731 19.6365 14.6203 19.1367 15.0193 18.9192L23.733 14.1693C24.1098 13.9639 24.5812 14.0826 24.8158 14.4419L26.9395 17.6943L32.9616 13.6606C33.3391 13.4077 33.8502 13.5088 34.1031 13.8863Z" fill="white"/>
</svg>
