<svg width="38" height="41" viewBox="0 0 38 41" fill="none" xmlns="http://www.w3.org/2000/svg">
<path d="M8.63369 18.5212V17.4557C8.63369 17.3657 8.67136 17.2986 8.76214 17.2986C8.8816 17.2986 8.91114 17.4187 8.94111 17.4785C9.11238 17.8912 9.61291 18.7695 10.0758 19.2859C10.3892 19.6302 10.7775 19.8488 11.189 19.8488C11.8831 19.8488 12.4649 19.2411 12.4649 18.5883C12.4649 18.1834 12.2937 17.883 11.9653 17.5232C11.5469 17.0653 11.0546 16.465 10.8752 16.1892C10.8314 16.1304 10.8056 16.0601 10.8006 15.9869C10.8006 15.9039 10.8435 15.844 10.9351 15.7618C11.144 15.5665 11.6591 15.0789 11.943 14.6365C12.1592 14.2987 12.2487 13.991 12.2487 13.7362C12.2487 13.0834 11.6591 12.5743 11.0173 12.5743C10.6067 12.5743 10.2183 12.8071 9.95716 13.2345C9.60649 13.8051 9.18645 14.4652 8.9197 14.7277C8.85248 14.7953 8.8148 14.8104 8.76299 14.8104C8.67351 14.8104 8.63454 14.7501 8.63454 14.6524V13.8998C8.63369 13.1647 8.20081 12.5709 7.41726 12.5709C6.626 12.5709 6.2004 13.1639 6.2004 13.8989V18.5212C6.2004 19.2566 6.626 19.8492 7.41726 19.8492C8.20081 19.8492 8.63369 19.2566 8.63369 18.5212Z" fill="#D62400"/>
<path d="M1.2921 30.8857C0.600114 30.8857 0.289062 31.3578 0.289062 32.1838C0.289062 33.6347 1.23318 35.6582 3.09811 37.1411C6.20383 39.6202 11.5308 40.3331 18.9001 40.3331C26.2694 40.3331 31.597 39.625 34.7027 37.1411C36.5663 35.6582 37.5117 33.6337 37.5117 32.1838C37.5117 31.3578 37.2014 30.8857 36.508 30.8857H1.2921Z" fill="#FF8233"/>
<path d="M36.5079 11.272C37.2013 11.272 37.5117 10.9333 37.5117 10.324C37.5117 6.71134 31.6463 0.333008 18.9001 0.333008C6.03523 0.333008 0.289062 6.71134 0.289062 10.324C0.289062 10.9333 0.600148 11.272 1.29221 11.272H36.5079Z" fill="#FF8233"/>
<path d="M4.86344 16.0142C4.80804 15.9689 4.75134 15.9235 4.75134 15.8782C4.75134 15.8219 4.78549 15.7992 4.84154 15.7319C5.12743 15.3916 5.27919 14.9578 5.26805 14.5125C5.26805 13.1579 4.35833 12.4352 2.94285 12.4352H1.60339C0.71622 12.4352 0.289062 12.9533 0.289062 13.6545V18.6329C0.289062 19.3316 0.71622 19.8496 1.60339 19.8496H3.18832C4.68176 19.8496 5.59212 18.8446 5.59212 17.5916C5.59084 16.5899 4.99552 16.1269 4.86344 16.0142ZM2.26636 14.3772C2.26636 14.2302 2.35591 14.1182 2.54662 14.1182H2.69287C3.17608 14.1182 3.32233 14.4569 3.32233 14.7502C3.32233 15.0209 3.17608 15.4049 2.69287 15.4049H2.54404C2.35076 15.4049 2.26378 15.2922 2.26378 15.1458L2.26636 14.3772ZM2.74892 18.1589H2.54404C2.35076 18.1589 2.26378 18.0462 2.26378 17.8999V17.0192C2.26378 16.8716 2.35333 16.7602 2.54404 16.7602H2.74634C3.2856 16.7602 3.44281 17.1215 3.44281 17.4492C3.44603 17.7412 3.28818 18.1589 2.74892 18.1589Z" fill="#D62400"/>
<path d="M32.2064 29.1459C32.0188 29.1459 31.8805 29.0965 31.7719 28.9978C31.6633 28.8991 31.6139 28.7707 31.6139 28.6226C31.6139 28.514 31.6436 28.4054 31.7127 28.2967C31.8904 28.0104 31.9793 27.6451 31.9793 27.2205V24.1595C31.9793 23.735 31.8904 23.3696 31.7127 23.0833C31.6436 22.9747 31.6139 22.8661 31.6139 22.7574C31.6139 22.6093 31.6633 22.481 31.7719 22.3822C31.8805 22.2835 32.0188 22.2341 32.2064 22.2341H35.7413C35.9881 22.2341 36.1757 22.2934 36.3238 22.4217C36.4621 22.5501 36.541 22.7278 36.5707 22.9747L36.6299 23.5474C36.6497 23.735 36.6102 23.8929 36.5213 24.0114C36.4324 24.1299 36.2843 24.1892 36.0967 24.1892C35.9585 24.1892 35.8499 24.1595 35.7709 24.0904C35.682 24.0312 35.603 23.9226 35.5142 23.7745C35.445 23.656 35.3463 23.5671 35.2179 23.5079C35.0797 23.4486 34.9217 23.419 34.744 23.419H33.9146C33.727 23.419 33.6381 23.5079 33.6381 23.6955V24.7026C33.6381 24.8902 33.727 24.9791 33.9146 24.9791H34.4478C34.5564 24.9791 34.6452 24.9495 34.7242 24.9001C34.8032 24.8507 34.8625 24.7915 34.8921 24.7125C34.9711 24.515 35.1192 24.4163 35.3265 24.4163C35.5734 24.4163 35.7215 24.5348 35.761 24.7816C35.8005 25.0285 35.8202 25.2753 35.8202 25.532C35.8202 25.7789 35.8005 26.0356 35.761 26.2923C35.7215 26.5392 35.5734 26.6577 35.3265 26.6577C35.1192 26.6577 34.981 26.5589 34.8921 26.3614C34.8625 26.2726 34.8032 26.2035 34.7242 26.1541C34.6452 26.1047 34.5564 26.085 34.4478 26.085H33.9146C33.727 26.085 33.6381 26.1738 33.6381 26.3614V27.6846C33.6381 27.8722 33.727 27.961 33.9146 27.961H34.8822C35.3068 27.961 35.5833 27.7932 35.7215 27.4673L35.8104 27.26C35.8696 27.1316 35.9387 27.0329 36.0276 26.9638C36.1165 26.8946 36.2251 26.865 36.3633 26.865C36.5312 26.865 36.6595 26.9144 36.7484 27.023C36.8373 27.1316 36.8768 27.2698 36.8669 27.4476L36.8175 28.3757C36.7879 28.8892 36.5213 29.1459 36.0177 29.1459H32.2064Z" fill="#D72300"/>
<path d="M25.8429 29.1459C25.6553 29.1459 25.517 29.0965 25.4084 28.9978C25.2998 28.8991 25.2504 28.7707 25.2504 28.6226C25.2504 28.514 25.2801 28.4054 25.3492 28.2967C25.5269 28.0104 25.6158 27.6451 25.6158 27.2205V24.1595C25.6158 23.735 25.5269 23.3696 25.3492 23.0833C25.2801 22.9747 25.2504 22.8661 25.2504 22.7574C25.2504 22.6093 25.2998 22.481 25.4084 22.3822C25.517 22.2835 25.6553 22.2341 25.8429 22.2341H28.1633C28.6866 22.2341 29.1408 22.3131 29.516 22.481C29.8813 22.6488 30.1677 22.8858 30.3553 23.1721C30.5429 23.4585 30.6318 23.7843 30.6318 24.1299C30.6318 24.4755 30.5429 24.7915 30.3652 25.0778C30.1776 25.3642 29.9505 25.5715 29.674 25.7196C29.6147 25.7493 29.5851 25.7789 29.5851 25.8184C29.5851 25.848 29.6147 25.8875 29.6839 25.9171C29.8912 26.0257 30.0492 26.1541 30.1677 26.3219C30.2763 26.4898 30.3553 26.6972 30.3948 26.944C30.454 27.3093 30.533 27.5858 30.6416 27.7833C30.7502 27.9808 30.8984 28.1783 31.086 28.3856C31.1748 28.4942 31.2242 28.6028 31.2242 28.7213C31.2242 28.8398 31.1847 28.9385 31.1057 29.0175C31.0267 29.1064 30.9181 29.1459 30.7799 29.1459H29.6839C29.2988 29.1459 29.0815 28.9682 29.042 28.6226C29.0322 28.593 29.0322 28.5436 29.0223 28.4942C29.0124 28.4449 29.0124 28.3757 29.0026 28.2967C28.9729 28.0993 28.9236 27.7635 28.8742 27.2896C28.8347 26.9638 28.7458 26.7367 28.6076 26.6083C28.4595 26.4799 28.2126 26.4207 27.867 26.4207H27.5511C27.3635 26.4207 27.2746 26.5096 27.2746 26.6972V27.2205C27.2746 27.4575 27.2944 27.6549 27.3437 27.8228C27.3832 27.9906 27.4523 28.1486 27.5412 28.2967C27.6103 28.4054 27.6399 28.514 27.6399 28.6226C27.6399 28.7707 27.5906 28.8991 27.482 28.9978C27.3733 29.0965 27.2351 29.1459 27.0475 29.1459H25.8429ZM27.9954 25.2358C28.3212 25.2358 28.578 25.1568 28.7656 24.9988C28.9433 24.8507 29.0322 24.6236 29.0322 24.3274C29.0322 24.0312 28.9433 23.8041 28.7656 23.6461C28.578 23.498 28.3212 23.419 27.9954 23.419H27.5511C27.3635 23.419 27.2746 23.5079 27.2746 23.6955V24.9593C27.2746 25.1469 27.3635 25.2358 27.5511 25.2358H27.9954Z" fill="#D72300"/>
<path d="M21.7031 29.2841C21.2193 29.2841 20.7848 29.1755 20.3997 28.9682C20.0048 28.7608 19.6888 28.4448 19.4617 28.04C19.2346 27.6352 19.1161 27.1514 19.1161 26.5885V24.1595C19.1161 23.735 19.0273 23.3696 18.8495 23.0833C18.7804 22.9747 18.7508 22.8661 18.7508 22.7574C18.7508 22.6093 18.8002 22.481 18.9088 22.3822C19.0174 22.2835 19.1556 22.2341 19.3432 22.2341H20.5478C20.7355 22.2341 20.8737 22.2835 20.9823 22.3822C21.0909 22.481 21.1403 22.6093 21.1403 22.7574C21.1403 22.8661 21.1107 22.9747 21.0415 23.0833C20.9527 23.2314 20.8836 23.3795 20.8441 23.5474C20.7947 23.7152 20.7749 23.9226 20.7749 24.1595V26.5293C20.7749 26.9835 20.8836 27.3291 21.1008 27.5562C21.318 27.7932 21.634 27.9117 22.0388 27.9117C22.3943 27.9117 22.6806 27.7932 22.888 27.5661C23.0953 27.339 23.2039 27.0033 23.2039 26.5688V24.1595C23.2039 23.9226 23.1842 23.7152 23.1447 23.5474C23.0953 23.3795 23.0262 23.2314 22.9373 23.0833C22.8682 22.9747 22.8386 22.8661 22.8386 22.7574C22.8386 22.6093 22.888 22.481 22.9966 22.3822C23.1052 22.2835 23.2434 22.2341 23.431 22.2341H24.2407C24.4283 22.2341 24.5666 22.2835 24.6752 22.3822C24.7838 22.481 24.8332 22.6093 24.8332 22.7574C24.8332 22.8661 24.8035 22.9747 24.7344 23.0833C24.6455 23.2314 24.5764 23.3795 24.5369 23.5474C24.4876 23.7152 24.4678 23.9226 24.4678 24.1595V26.6873C24.4678 27.5266 24.221 28.1684 23.7371 28.6127C23.2434 29.057 22.5621 29.2841 21.7031 29.2841Z" fill="#D72300"/>
<path d="M14.7567 29.1459C14.5691 29.1459 14.4309 29.0965 14.3223 28.9978C14.2137 28.8991 14.1643 28.7707 14.1643 28.6226C14.1643 28.514 14.1939 28.4054 14.263 28.2967C14.3519 28.1486 14.421 27.9906 14.4704 27.8228C14.5099 27.6549 14.5296 27.4575 14.5296 27.2205V23.735C14.5296 23.6362 14.5 23.5572 14.4507 23.498C14.3914 23.4486 14.3124 23.419 14.2137 23.419H14.2038C13.9964 23.419 13.8483 23.4881 13.7496 23.6263C13.641 23.7646 13.562 23.9818 13.5126 24.2682C13.483 24.4261 13.4238 24.5545 13.3151 24.6434C13.2065 24.7322 13.0782 24.7816 12.9301 24.7816C12.7425 24.7816 12.5845 24.7224 12.4759 24.6039C12.3672 24.4854 12.3179 24.3274 12.3277 24.1398L12.387 22.9747C12.3969 22.7377 12.4759 22.5501 12.624 22.4217C12.7721 22.2934 12.9696 22.2341 13.2164 22.2341H17.5017C17.7486 22.2341 17.9559 22.2934 18.104 22.4217C18.2521 22.5501 18.3213 22.7377 18.3311 22.9747L18.3904 24.1398C18.4002 24.3274 18.3509 24.4854 18.2423 24.6039C18.1336 24.7224 17.9757 24.7816 17.7881 24.7816C17.6399 24.7816 17.5116 24.7322 17.403 24.6434C17.2944 24.5545 17.2351 24.4261 17.2055 24.2682C17.1561 23.9818 17.0771 23.7646 16.9784 23.6263C16.8698 23.4881 16.7217 23.419 16.5143 23.419H16.5044C16.4057 23.419 16.3267 23.4486 16.2773 23.498C16.2181 23.5572 16.1885 23.6362 16.1885 23.735V27.2205C16.1885 27.4575 16.2082 27.6549 16.2576 27.8228C16.2971 27.9906 16.3662 28.1486 16.4551 28.2967C16.5242 28.4054 16.5538 28.514 16.5538 28.6226C16.5538 28.7707 16.5044 28.8991 16.3958 28.9978C16.2872 29.0965 16.149 29.1459 15.9614 29.1459H14.7567Z" fill="#D72300"/>
<path d="M8.83998 29.2841C8.35616 29.2841 7.9217 29.1755 7.53662 28.9682C7.14166 28.7608 6.82569 28.4448 6.59859 28.04C6.37149 27.6352 6.253 27.1514 6.253 26.5885V24.1595C6.253 23.735 6.16413 23.3696 5.9864 23.0833C5.91728 22.9747 5.88766 22.8661 5.88766 22.7574C5.88766 22.6093 5.93703 22.481 6.04564 22.3822C6.15426 22.2835 6.29249 22.2341 6.4801 22.2341H7.68473C7.87233 22.2341 8.01057 22.2835 8.11918 22.3822C8.22779 22.481 8.27716 22.6093 8.27716 22.7574C8.27716 22.8661 8.24754 22.9747 8.17842 23.0833C8.08956 23.2314 8.02044 23.3795 7.98095 23.5474C7.93158 23.7152 7.91183 23.9226 7.91183 24.1595V26.5293C7.91183 26.9835 8.02044 27.3291 8.23767 27.5562C8.4549 27.7932 8.77086 27.9117 9.1757 27.9117C9.53116 27.9117 9.8175 27.7932 10.0249 27.5661C10.2322 27.339 10.3408 27.0033 10.3408 26.5688V24.1595C10.3408 23.9226 10.3211 23.7152 10.2816 23.5474C10.2322 23.3795 10.1631 23.2314 10.0742 23.0833C10.0051 22.9747 9.97549 22.8661 9.97549 22.7574C9.97549 22.6093 10.0249 22.481 10.1335 22.3822C10.2421 22.2835 10.3803 22.2341 10.5679 22.2341H11.3776C11.5652 22.2341 11.7034 22.2835 11.812 22.3822C11.9207 22.481 11.97 22.6093 11.97 22.7574C11.97 22.8661 11.9404 22.9747 11.8713 23.0833C11.7824 23.2314 11.7133 23.3795 11.6738 23.5474C11.6244 23.7152 11.6047 23.9226 11.6047 24.1595V26.6873C11.6047 27.5266 11.3578 28.1684 10.874 28.6127C10.3803 29.057 9.69902 29.2841 8.83998 29.2841Z" fill="#D72300"/>
<path d="M1.09968 29.1459C0.912077 29.1459 0.773841 29.0965 0.665227 28.9978C0.556613 28.8991 0.507244 28.7707 0.507244 28.6226C0.507244 28.514 0.536865 28.4054 0.605983 28.2967C0.783715 28.0104 0.872581 27.6451 0.872581 27.2205V24.1595C0.872581 23.735 0.783715 23.3696 0.605983 23.0833C0.536865 22.9747 0.507244 22.8661 0.507244 22.7574C0.507244 22.6093 0.556613 22.481 0.665227 22.3822C0.773841 22.2835 0.912077 22.2341 1.09968 22.2341H4.63457C4.88142 22.2341 5.06902 22.2934 5.21713 22.4217C5.35537 22.5501 5.43436 22.7278 5.46398 22.9747L5.52323 23.5474C5.54297 23.735 5.50348 23.893 5.41461 24.0114C5.32575 24.1299 5.17764 24.1892 4.99003 24.1892C4.85179 24.1892 4.74318 24.1595 4.66419 24.0904C4.57532 24.0312 4.49633 23.9226 4.40747 23.7745C4.33835 23.656 4.23961 23.5671 4.11125 23.5079C3.97301 23.4486 3.81503 23.419 3.6373 23.419H2.80788C2.62028 23.419 2.53141 23.5079 2.53141 23.6955V24.9988C2.53141 25.1864 2.62028 25.2753 2.80788 25.2753H3.42994C3.53856 25.2753 3.62742 25.2457 3.70641 25.1963C3.7854 25.1469 3.84465 25.0877 3.87427 25.0087C3.95326 24.8112 4.10137 24.7125 4.30873 24.7125C4.55558 24.7125 4.70368 24.831 4.74318 25.0778C4.78268 25.3247 4.80242 25.5715 4.80242 25.8283C4.80242 26.0751 4.78268 26.3318 4.74318 26.5885C4.70368 26.8354 4.55558 26.9539 4.30873 26.9539C4.10137 26.9539 3.96314 26.8551 3.87427 26.6577C3.84465 26.5688 3.7854 26.4997 3.70641 26.4503C3.62742 26.4009 3.53856 26.3812 3.42994 26.3812H2.80788C2.62028 26.3812 2.53141 26.4701 2.53141 26.6577V27.2205C2.53141 27.4575 2.55116 27.6549 2.60053 27.8228C2.64002 27.9907 2.70914 28.1486 2.79801 28.2967C2.86712 28.4054 2.89675 28.514 2.89675 28.6226C2.89675 28.7707 2.84738 28.8991 2.73876 28.9978C2.63015 29.0965 2.49191 29.1459 2.30431 29.1459H1.09968Z" fill="#D72300"/>
<path fill-rule="evenodd" clip-rule="evenodd" d="M35.7201 27.4675L35.809 27.2601C35.8682 27.1317 35.9374 27.033 36.0262 26.9639C36.1151 26.8948 36.2237 26.8651 36.3619 26.8651C36.5298 26.8651 36.6582 26.9145 36.747 27.0231C36.8359 27.1317 36.8754 27.27 36.8655 27.4477L36.8162 28.3759C36.7865 28.8893 36.5199 29.146 36.0164 29.146H32.205C32.0174 29.146 31.8792 29.0967 31.7705 28.9979C31.6619 28.8992 31.6126 28.7708 31.6126 28.6227C31.6126 28.5141 31.6422 28.4055 31.7113 28.2969C31.889 28.0105 31.9779 27.6452 31.9779 27.2206V24.1597C31.9779 23.7351 31.889 23.3698 31.7113 23.0834C31.6422 22.9748 31.6126 22.8662 31.6126 22.7576C31.6126 22.6095 31.6619 22.4811 31.7705 22.3824C31.8792 22.2836 32.0174 22.2343 32.205 22.2343H35.7399C35.9867 22.2343 36.1743 22.2935 36.3225 22.4219C36.4607 22.5502 36.5397 22.728 36.5693 22.9748L36.6285 23.5475C36.6483 23.7351 36.6088 23.8931 36.5199 24.0116C36.4311 24.1301 36.283 24.1893 36.0953 24.1893C35.9571 24.1893 35.8485 24.1597 35.7695 24.0906C35.6806 24.0313 35.6017 23.9227 35.5128 23.7746C35.4437 23.6561 35.3449 23.5672 35.2166 23.508C35.0783 23.4487 34.9203 23.4191 34.7426 23.4191H33.9132C33.7256 23.4191 33.6367 23.508 33.6367 23.6956V24.7027C33.6367 24.8904 33.7256 24.9792 33.9132 24.9792H34.4464C34.555 24.9792 34.6439 24.9496 34.7229 24.9002C34.8019 24.8509 34.8611 24.7916 34.8907 24.7126C34.9697 24.5151 35.1178 24.4164 35.3252 24.4164C35.572 24.4164 35.7201 24.5349 35.7596 24.7817C35.7991 25.0286 35.8189 25.2754 35.8189 25.5322C35.8189 25.779 35.7991 26.0357 35.7596 26.2925C35.7201 26.5393 35.572 26.6578 35.3252 26.6578C35.1178 26.6578 34.9796 26.5591 34.8907 26.3616C34.8611 26.2727 34.8019 26.2036 34.7229 26.1542C34.6439 26.1049 34.555 26.0851 34.4464 26.0851H33.9132C33.7256 26.0851 33.6367 26.174 33.6367 26.3616V27.6847C33.6367 27.8723 33.7256 27.9612 33.9132 27.9612H34.8809C35.3054 27.9612 35.5819 27.7933 35.7201 27.4675ZM35.6478 24.2496C35.5229 24.1621 35.4273 24.0208 35.3413 23.8775L35.34 23.8754C35.2927 23.7942 35.2263 23.7333 35.1352 23.6907C35.0265 23.6446 34.8969 23.6191 34.7426 23.6191H33.9132C33.8702 23.6191 33.852 23.6259 33.8463 23.6287C33.8435 23.6344 33.8367 23.6526 33.8367 23.6956V24.7027C33.8367 24.7457 33.8435 24.764 33.8463 24.7696C33.852 24.7725 33.8702 24.7792 33.9132 24.7792H34.4464C34.5149 24.7792 34.5673 24.7616 34.6169 24.7306C34.6737 24.6951 34.6945 24.6662 34.7035 24.6424L34.705 24.6383C34.7565 24.5096 34.8359 24.4006 34.9476 24.3249C35.0593 24.2492 35.1891 24.2164 35.3252 24.2164C35.4797 24.2164 35.6288 24.2537 35.7479 24.3526C35.8679 24.4522 35.932 24.5932 35.9571 24.7501C35.9983 25.0075 36.0189 25.2649 36.0189 25.5322C36.0189 25.7895 35.9983 26.0564 35.9573 26.3229L35.9571 26.3241C35.932 26.481 35.8679 26.622 35.7479 26.7215C35.6288 26.8205 35.4797 26.8578 35.3252 26.8578C35.1883 26.8578 35.0606 26.8246 34.95 26.7484C34.8407 26.673 34.7634 26.5661 34.7083 26.4436C34.7056 26.4375 34.7031 26.4312 34.701 26.4248C34.6879 26.3855 34.6616 26.3517 34.6169 26.3238C34.5786 26.2999 34.5296 26.2851 34.4464 26.2851H33.9132C33.8702 26.2851 33.852 26.2918 33.8463 26.2947C33.8435 26.3004 33.8367 26.3186 33.8367 26.3616V27.6847C33.8367 27.7277 33.8435 27.7459 33.8463 27.7516C33.852 27.7544 33.8702 27.7612 33.9132 27.7612H34.8809C35.0674 27.7612 35.205 27.7243 35.3059 27.6645C35.4046 27.6059 35.4816 27.5175 35.536 27.3894L35.6273 27.1763C35.6945 27.0308 35.7807 26.9015 35.9034 26.806C36.0376 26.7017 36.1941 26.6651 36.3619 26.6651C36.5714 26.6651 36.7647 26.7289 36.9018 26.8965C37.0294 27.0525 37.0772 27.2436 37.0652 27.4588L37.0159 28.3865C36.9993 28.6738 36.9144 28.9226 36.7327 29.0976C36.5504 29.2731 36.3009 29.346 36.0164 29.346H32.205C31.9787 29.346 31.7889 29.2849 31.636 29.1459C31.4803 29.0043 31.4126 28.8194 31.4126 28.6227C31.4126 28.4754 31.4534 28.3301 31.5418 28.1907C31.6947 27.944 31.7779 27.6181 31.7779 27.2206V24.1597C31.7779 23.7622 31.6947 23.4363 31.5418 23.1896C31.4534 23.0502 31.4126 22.9049 31.4126 22.7576C31.4126 22.5609 31.4803 22.3759 31.636 22.2344C31.7889 22.0954 31.9787 22.0343 32.205 22.0343H35.7399C36.0207 22.0343 36.2595 22.1027 36.4534 22.2707L36.4585 22.2753C36.6414 22.4451 36.7345 22.6726 36.7679 22.951L36.7683 22.9542L36.8274 23.5266C36.8514 23.7538 36.8049 23.9649 36.6799 24.1316C36.5415 24.3162 36.3232 24.3893 36.0953 24.3893C35.9354 24.3893 35.7756 24.3561 35.6478 24.2496ZM33.8442 27.7503C33.8438 27.75 33.8442 27.7503 33.8442 27.7503V27.7503ZM33.8442 24.7684C33.8438 24.768 33.8442 24.7684 33.8442 24.7684V24.7684ZM33.8471 24.7711C33.8471 24.7711 33.8474 24.7715 33.8471 24.7711V24.7711ZM33.8476 23.6266C33.8476 23.6266 33.8479 23.6262 33.8476 23.6266V23.6266Z" fill="#D72300"/>
<path fill-rule="evenodd" clip-rule="evenodd" d="M29.5963 22.2985L29.5981 22.2994C29.9921 22.4804 30.3099 22.7402 30.5212 23.0627C30.7321 23.3845 30.8304 23.7491 30.8304 24.1301C30.8304 24.5119 30.7316 24.8646 30.5337 25.1834L30.5311 25.1876C30.3578 25.4522 30.1511 25.658 29.906 25.8147C30.0755 25.9203 30.2169 26.0469 30.3297 26.2067C30.3313 26.2089 30.3328 26.2112 30.3342 26.2134C30.4598 26.4074 30.5475 26.6417 30.5909 26.9123C30.6488 27.2694 30.7233 27.5194 30.8155 27.687C30.9144 27.8669 31.0521 28.0518 31.2329 28.2516C31.2351 28.254 31.2373 28.2565 31.2394 28.2591C31.3465 28.39 31.4228 28.542 31.4228 28.7215C31.4228 28.8875 31.3661 29.0366 31.2499 29.1549C31.1236 29.2942 30.9555 29.346 30.7785 29.346H29.6825C29.4612 29.346 29.26 29.295 29.1055 29.1689C28.9524 29.0439 28.8704 28.866 28.844 28.6617C28.8409 28.6492 28.8388 28.6379 28.8374 28.629C28.835 28.614 28.8333 28.5992 28.832 28.588C28.8292 28.5624 28.8277 28.5478 28.8248 28.5336C28.8171 28.4948 28.8139 28.4528 28.8116 28.4215L28.8108 28.4109C28.8086 28.3807 28.8066 28.3531 28.803 28.324C28.7732 28.1249 28.7236 27.7873 28.6741 27.3121C28.6367 27.0058 28.5574 26.8379 28.4726 26.7573C28.3805 26.6793 28.1966 26.6208 27.8657 26.6208H27.5497C27.5067 26.6208 27.4885 26.6275 27.4828 26.6304C27.48 26.6361 27.4732 26.6543 27.4732 26.6973V27.2206C27.4732 27.4482 27.4924 27.6244 27.5342 27.7665C27.5347 27.7681 27.5352 27.7697 27.5356 27.7714C27.5361 27.7733 27.5366 27.7752 27.537 27.7771C27.5708 27.9207 27.6305 28.0589 27.7101 28.1919C27.798 28.331 27.8386 28.4758 27.8386 28.6227C27.8386 28.8194 27.7709 29.0043 27.6151 29.1459C27.4623 29.2849 27.2725 29.346 27.0461 29.346H25.8415C25.6152 29.346 25.4254 29.2849 25.2725 29.1459C25.1168 29.0043 25.0491 28.8194 25.0491 28.6227C25.0491 28.4754 25.0899 28.33 25.1784 28.1905C25.3312 27.9439 25.4144 27.6181 25.4144 27.2206V24.1597C25.4144 23.7622 25.3312 23.4364 25.1784 23.1897C25.0899 23.0503 25.0491 22.9049 25.0491 22.7576C25.0491 22.5609 25.1168 22.3759 25.2725 22.2344C25.4254 22.0954 25.6152 22.0343 25.8415 22.0343H28.1619C28.704 22.0343 29.1881 22.1159 29.5963 22.2985ZM25.3478 23.0834C25.5255 23.3698 25.6144 23.7351 25.6144 24.1597V27.2206C25.6144 27.6452 25.5255 28.0105 25.3478 28.2969C25.2787 28.4055 25.2491 28.5141 25.2491 28.6227C25.2491 28.7708 25.2984 28.8992 25.4071 28.9979C25.5157 29.0967 25.6539 29.146 25.8415 29.146H27.0461C27.2337 29.146 27.372 29.0967 27.4806 28.9979C27.5892 28.8992 27.6386 28.7708 27.6386 28.6227C27.6386 28.5141 27.609 28.4055 27.5398 28.2969C27.451 28.1488 27.3819 27.9908 27.3424 27.8229C27.293 27.6551 27.2732 27.4576 27.2732 27.2206V26.6973C27.2732 26.5097 27.3621 26.4208 27.5497 26.4208H27.8657C28.2113 26.4208 28.4581 26.4801 28.6062 26.6084C28.7445 26.7368 28.8333 26.9639 28.8728 27.2897C28.9222 27.7637 28.9716 28.0994 29.0012 28.2969C29.0056 28.3322 29.008 28.3655 29.0103 28.396C29.013 28.4337 29.0155 28.4671 29.0209 28.4944C29.0254 28.5166 29.0278 28.5388 29.0301 28.5593C29.0328 28.5842 29.0353 28.6064 29.0407 28.6227C29.0802 28.9683 29.2974 29.146 29.6825 29.146H30.7785C30.9167 29.146 31.0254 29.1065 31.1043 29.0177C31.1833 28.9387 31.2228 28.8399 31.2228 28.7215C31.2228 28.603 31.1735 28.4944 31.0846 28.3857C30.897 28.1784 30.7489 27.9809 30.6403 27.7834C30.5317 27.5859 30.4527 27.3095 30.3934 26.9441C30.3539 26.6973 30.2749 26.4899 30.1663 26.3221C30.0478 26.1542 29.8898 26.0259 29.6825 25.9172C29.6134 25.8876 29.5837 25.8481 29.5837 25.8185C29.5837 25.779 29.6134 25.7494 29.6726 25.7198C29.9491 25.5717 30.1762 25.3643 30.3638 25.078C30.5415 24.7916 30.6304 24.4756 30.6304 24.1301C30.6304 23.7845 30.5415 23.4586 30.3539 23.1723C30.1663 22.8859 29.88 22.649 29.5146 22.4811C29.1394 22.3132 28.6852 22.2343 28.1619 22.2343H25.8415C25.6539 22.2343 25.5157 22.2836 25.4071 22.3824C25.2984 22.4811 25.2491 22.6095 25.2491 22.7576C25.2491 22.8662 25.2787 22.9748 25.3478 23.0834ZM28.6354 24.846L28.6362 24.8453C28.7554 24.746 28.8308 24.5836 28.8308 24.3275C28.8308 24.0762 28.7579 23.9106 28.6356 23.7996C28.4927 23.6887 28.2851 23.6191 27.994 23.6191H27.5497C27.5067 23.6191 27.4885 23.6259 27.4828 23.6287C27.48 23.6344 27.4732 23.6526 27.4732 23.6956V24.9595C27.4732 25.0024 27.48 25.0207 27.4828 25.0264C27.4885 25.0292 27.5067 25.0359 27.5497 25.0359H27.994C28.2884 25.0359 28.4942 24.9649 28.6354 24.846ZM27.4807 25.0251C27.4803 25.0248 27.4807 25.0251 27.4807 25.0251V25.0251ZM27.4841 23.6266C27.4841 23.6266 27.4844 23.6262 27.4841 23.6266V23.6266ZM28.7642 23.6462C28.9419 23.8042 29.0308 24.0313 29.0308 24.3275C29.0308 24.6238 28.9419 24.8509 28.7642 24.999C28.5766 25.1569 28.3199 25.2359 27.994 25.2359H27.5497C27.3621 25.2359 27.2732 25.1471 27.2732 24.9595V23.6956C27.2732 23.508 27.3621 23.4191 27.5497 23.4191H27.994C28.3199 23.4191 28.5766 23.4981 28.7642 23.6462Z" fill="#D72300"/>
<path fill-rule="evenodd" clip-rule="evenodd" d="M21.0374 23.5933C21.0365 23.5969 21.0356 23.6004 21.0346 23.6039C20.9929 23.7455 20.9736 23.9312 20.9736 24.1597V26.5294C20.9736 26.9557 21.0758 27.2423 21.2439 27.4181L21.2469 27.4212C21.4164 27.6061 21.6723 27.7118 22.0374 27.7118C22.345 27.7118 22.5747 27.6112 22.7389 27.4313C22.9017 27.2531 23.0026 26.9725 23.0026 26.5689V24.1597C23.0026 23.9352 22.984 23.7461 22.9499 23.5986C22.9064 23.4527 22.8459 23.3222 22.7657 23.1884C22.6778 23.0493 22.6372 22.9045 22.6372 22.7576C22.6372 22.5609 22.705 22.3759 22.8607 22.2344C23.0135 22.0954 23.2034 22.0343 23.4297 22.0343H24.2393C24.4657 22.0343 24.6555 22.0954 24.8083 22.2344C24.9641 22.3759 25.0318 22.5609 25.0318 22.7576C25.0318 22.9045 24.9912 23.0493 24.9033 23.1884C24.822 23.3242 24.7634 23.4523 24.7302 23.5933C24.7294 23.5969 24.7285 23.6004 24.7274 23.6039C24.6858 23.7455 24.6664 23.9312 24.6664 24.1597V26.6874C24.6664 27.5673 24.4063 28.2686 23.8711 28.7601L23.8696 28.7615C23.3298 29.2473 22.596 29.4843 21.7017 29.4843C21.1873 29.4843 20.7203 29.3686 20.3045 29.1449C19.8733 28.9183 19.5304 28.5738 19.2859 28.138C19.0394 27.6986 18.9148 27.18 18.9148 26.5887V24.1597C18.9148 23.7622 18.8316 23.4364 18.6788 23.1897C18.5903 23.0503 18.5494 22.9049 18.5494 22.7576C18.5494 22.5609 18.6171 22.3759 18.7729 22.2344C18.9257 22.0954 19.1155 22.0343 19.3419 22.0343H20.5465C20.7728 22.0343 20.9626 22.0954 21.1155 22.2344C21.2712 22.3759 21.3389 22.5609 21.3389 22.7576C21.3389 22.9045 21.2983 23.0493 21.2104 23.1884C21.1291 23.3242 21.0706 23.4523 21.0374 23.5933ZM21.0402 23.0834C21.1093 22.9748 21.1389 22.8662 21.1389 22.7576C21.1389 22.6095 21.0895 22.4811 20.9809 22.3824C20.8723 22.2836 20.7341 22.2343 20.5465 22.2343H19.3419C19.1542 22.2343 19.016 22.2836 18.9074 22.3824C18.7988 22.4811 18.7494 22.6095 18.7494 22.7576C18.7494 22.8662 18.779 22.9748 18.8482 23.0834C19.0259 23.3698 19.1147 23.7351 19.1147 24.1597V26.5887C19.1147 27.1515 19.2332 27.6353 19.4603 28.0401C19.6874 28.445 20.0034 28.761 20.3984 28.9683C20.7835 29.1757 21.2179 29.2843 21.7017 29.2843C22.5608 29.2843 23.2421 29.0572 23.7358 28.6128C24.2196 28.1685 24.4664 27.5267 24.4664 26.6874V24.1597C24.4664 23.9227 24.4862 23.7153 24.5356 23.5475C24.5751 23.3796 24.6442 23.2315 24.733 23.0834C24.8022 22.9748 24.8318 22.8662 24.8318 22.7576C24.8318 22.6095 24.7824 22.4811 24.6738 22.3824C24.5652 22.2836 24.427 22.2343 24.2393 22.2343H23.4297C23.2421 22.2343 23.1038 22.2836 22.9952 22.3824C22.8866 22.4811 22.8372 22.6095 22.8372 22.7576C22.8372 22.8662 22.8669 22.9748 22.936 23.0834C23.0248 23.2315 23.094 23.3796 23.1433 23.5475C23.1828 23.7153 23.2026 23.9227 23.2026 24.1597V26.5689C23.2026 27.0034 23.094 27.3391 22.8866 27.5662C22.6793 27.7933 22.3929 27.9118 22.0374 27.9118C21.6326 27.9118 21.3166 27.7933 21.0994 27.5563C20.8822 27.3292 20.7736 26.9836 20.7736 26.5294V24.1597C20.7736 23.9227 20.7933 23.7153 20.8427 23.5475C20.8822 23.3796 20.9513 23.2315 21.0402 23.0834Z" fill="#D72300"/>
<path fill-rule="evenodd" clip-rule="evenodd" d="M13.911 23.7427C13.9092 23.7452 13.9074 23.7476 13.9055 23.75C13.8271 23.8498 13.7555 24.0285 13.7083 24.3023L13.7078 24.3052C13.6732 24.4901 13.5983 24.6691 13.4404 24.7983C13.2977 24.915 13.125 24.9817 12.9287 24.9817C12.6988 24.9817 12.482 24.9081 12.327 24.7391C12.1752 24.5735 12.1146 24.3595 12.1266 24.1296C12.1266 24.1297 12.1266 24.1295 12.1266 24.1296L12.1858 22.9665C12.1858 22.9668 12.1858 22.9661 12.1858 22.9665C12.1976 22.6889 12.2926 22.4432 12.4916 22.2707C12.6869 22.1015 12.9366 22.0343 13.215 22.0343H17.5003C17.7765 22.0343 18.0371 22.1004 18.2336 22.2707C18.437 22.447 18.5181 22.6953 18.5295 22.9654C18.5295 22.9658 18.5296 22.9661 18.5296 22.9665L18.5887 24.1294C18.5887 24.1294 18.5887 24.1295 18.5887 24.1294C18.6008 24.3593 18.5401 24.5735 18.3883 24.7391C18.2334 24.9081 18.0165 24.9817 17.7867 24.9817C17.5903 24.9817 17.4176 24.915 17.2749 24.7983C17.1171 24.6691 17.0422 24.4901 17.0075 24.3051L17.007 24.3023C16.9606 24.0329 16.8898 23.8505 16.8169 23.7465C16.7516 23.6651 16.6653 23.6191 16.5129 23.6191H16.5031C16.4415 23.6191 16.4194 23.6376 16.4174 23.6395C16.4023 23.6546 16.3871 23.6792 16.3871 23.7351V27.2206C16.3871 27.4482 16.4063 27.6244 16.4481 27.7665C16.4491 27.77 16.4501 27.7735 16.4509 27.7771C16.4847 27.9207 16.5444 28.0589 16.624 28.1919C16.7118 28.331 16.7524 28.4758 16.7524 28.6227C16.7524 28.8194 16.6847 29.0043 16.529 29.1459C16.3761 29.2849 16.1863 29.346 15.96 29.346H14.7554C14.529 29.346 14.3392 29.2849 14.1864 29.1459C14.0306 29.0043 13.9629 28.8194 13.9629 28.6227C13.9629 28.4758 14.0035 28.331 14.0914 28.1919C14.1699 28.0607 14.2313 27.9208 14.2756 27.7718C14.3098 27.6241 14.3283 27.4444 14.3283 27.2206V23.7351C14.3283 23.6908 14.3184 23.6614 14.3063 23.6411C14.286 23.629 14.2566 23.6191 14.2123 23.6191H14.2024C14.0456 23.6191 13.9647 23.6675 13.911 23.7427ZM14.2617 28.2969C14.1926 28.4055 14.1629 28.5141 14.1629 28.6227C14.1629 28.7708 14.2123 28.8992 14.3209 28.9979C14.4295 29.0967 14.5678 29.146 14.7554 29.146H15.96C16.1476 29.146 16.2858 29.0967 16.3944 28.9979C16.5031 28.8992 16.5524 28.7708 16.5524 28.6227C16.5524 28.5141 16.5228 28.4055 16.4537 28.2969C16.3648 28.1488 16.2957 27.9908 16.2562 27.8229C16.2068 27.6551 16.1871 27.4576 16.1871 27.2206V23.7351C16.1871 23.6364 16.2167 23.5574 16.276 23.4981C16.3253 23.4487 16.4043 23.4191 16.5031 23.4191H16.5129C16.7203 23.4191 16.8684 23.4882 16.977 23.6265C17.0758 23.7647 17.1547 23.9819 17.2041 24.2683C17.2337 24.4263 17.293 24.5546 17.4016 24.6435C17.5102 24.7324 17.6386 24.7817 17.7867 24.7817C17.9743 24.7817 18.1323 24.7225 18.2409 24.604C18.3495 24.4855 18.3989 24.3275 18.389 24.1399L18.3297 22.9748C18.3199 22.7378 18.2508 22.5502 18.1026 22.4219C17.9545 22.2935 17.7472 22.2343 17.5003 22.2343H13.215C12.9682 22.2343 12.7707 22.2935 12.6226 22.4219C12.4745 22.5502 12.3955 22.7378 12.3856 22.9748L12.3264 24.1399C12.3165 24.3275 12.3659 24.4855 12.4745 24.604C12.5831 24.7225 12.7411 24.7817 12.9287 24.7817C13.0768 24.7817 13.2052 24.7324 13.3138 24.6435C13.4224 24.5546 13.4816 24.4263 13.5112 24.2683C13.5606 23.9819 13.6396 23.7647 13.7482 23.6265C13.847 23.4882 13.9951 23.4191 14.2024 23.4191H14.2123C14.311 23.4191 14.39 23.4487 14.4493 23.4981C14.4986 23.5574 14.5283 23.6364 14.5283 23.7351V27.2206C14.5283 27.4576 14.5085 27.6551 14.469 27.8229C14.4197 27.9908 14.3505 28.1488 14.2617 28.2969Z" fill="#D72300"/>
<path fill-rule="evenodd" clip-rule="evenodd" d="M8.17283 23.599C8.17239 23.6006 8.17193 23.6023 8.17145 23.6039C8.12981 23.7455 8.11046 23.9312 8.11046 24.1597V26.5294C8.11046 26.9557 8.2127 27.2423 8.38083 27.4181L8.38376 27.4212C8.5533 27.6061 8.80917 27.7118 9.17433 27.7118C9.48184 27.7118 9.71156 27.6112 9.87579 27.4313C10.0386 27.2531 10.1395 26.9725 10.1395 26.5689V24.1597C10.1395 23.9352 10.1209 23.7461 10.0868 23.5986C10.0433 23.4527 9.98273 23.3222 9.90261 23.1884C9.81471 23.0493 9.77412 22.9045 9.77412 22.7576C9.77412 22.5609 9.84184 22.3759 9.99757 22.2344C10.1504 22.0954 10.3402 22.0343 10.5666 22.0343H11.3762C11.6025 22.0343 11.7924 22.0954 11.9452 22.2344C12.1009 22.3759 12.1687 22.5609 12.1687 22.7576C12.1687 22.9045 12.1281 23.0493 12.0402 23.1884C11.9589 23.3242 11.9003 23.4523 11.8671 23.5933C11.8663 23.5969 11.8654 23.6004 11.8643 23.6039C11.8227 23.7455 11.8033 23.9312 11.8033 24.1597V26.6874C11.8033 27.5673 11.5431 28.2686 11.0079 28.7601L11.0065 28.7615C10.4667 29.2473 9.73287 29.4843 8.83861 29.4843C8.32414 29.4843 7.85713 29.3686 7.4414 29.1449C7.0102 28.9183 6.66727 28.5738 6.42279 28.138C6.1763 27.6986 6.05163 27.18 6.05163 26.5887V24.1597C6.05163 23.7622 5.96845 23.4364 5.81564 23.1897C5.72715 23.0503 5.6863 22.9049 5.6863 22.7576C5.6863 22.5609 5.75401 22.3759 5.90974 22.2344C6.06259 22.0954 6.25241 22.0343 6.47873 22.0343H7.68336C7.90968 22.0343 8.0995 22.0954 8.25235 22.2344C8.40807 22.3759 8.47579 22.5609 8.47579 22.7576C8.47579 22.9045 8.43521 23.0493 8.34731 23.1884C8.26598 23.3242 8.20743 23.4523 8.17426 23.5933C8.17381 23.5952 8.17334 23.5971 8.17283 23.599ZM8.17706 23.0834C8.24617 22.9748 8.2758 22.8662 8.2758 22.7576C8.2758 22.6095 8.22643 22.4811 8.11781 22.3824C8.0092 22.2836 7.87096 22.2343 7.68336 22.2343H6.47873C6.29113 22.2343 6.15289 22.2836 6.04428 22.3824C5.93566 22.4811 5.88629 22.6095 5.88629 22.7576C5.88629 22.8662 5.91592 22.9748 5.98503 23.0834C6.16277 23.3698 6.25163 23.7351 6.25163 24.1597V26.5887C6.25163 27.1515 6.37012 27.6353 6.59722 28.0401C6.82432 28.445 7.14029 28.761 7.53525 28.9683C7.92033 29.1757 8.35479 29.2843 8.83861 29.2843C9.69765 29.2843 10.379 29.0572 10.8727 28.6128C11.3565 28.1685 11.6033 27.5267 11.6033 26.6874V24.1597C11.6033 23.9227 11.6231 23.7153 11.6724 23.5475C11.7119 23.3796 11.7811 23.2315 11.8699 23.0834C11.939 22.9748 11.9687 22.8662 11.9687 22.7576C11.9687 22.6095 11.9193 22.4811 11.8107 22.3824C11.7021 22.2836 11.5638 22.2343 11.3762 22.2343H10.5666C10.379 22.2343 10.2407 22.2836 10.1321 22.3824C10.0235 22.4811 9.97412 22.6095 9.97412 22.7576C9.97412 22.8662 10.0037 22.9748 10.0729 23.0834C10.1617 23.2315 10.2308 23.3796 10.2802 23.5475C10.3197 23.7153 10.3395 23.9227 10.3395 24.1597V26.5689C10.3395 27.0034 10.2308 27.3391 10.0235 27.5662C9.81614 27.7933 9.52979 27.9118 9.17433 27.9118C8.7695 27.9118 8.45353 27.7933 8.2363 27.5563C8.01907 27.3292 7.91046 26.9836 7.91046 26.5294V24.1597C7.91046 23.9227 7.93021 23.7153 7.97958 23.5475C8.01907 23.3796 8.08819 23.2315 8.17706 23.0834Z" fill="#D72300"/>
<path fill-rule="evenodd" clip-rule="evenodd" d="M0.529332 22.2343C0.682181 22.0954 0.871996 22.0342 1.09832 22.0342H4.6332C4.914 22.0342 5.15284 22.1026 5.34675 22.2707L5.35186 22.2753C5.53475 22.4451 5.62779 22.6726 5.66119 22.9509L5.66158 22.9542L5.72076 23.5265C5.72076 23.5265 5.72077 23.5266 5.72076 23.5265C5.74464 23.7537 5.69821 23.9649 5.57325 24.1315C5.43478 24.3162 5.21647 24.3893 4.98867 24.3893C4.82869 24.3893 4.66894 24.356 4.54113 24.2496C4.41623 24.1621 4.32058 24.0207 4.23461 23.8775L4.23334 23.8753C4.18597 23.7941 4.11961 23.7333 4.02853 23.6907C3.91981 23.6446 3.79021 23.6191 3.63593 23.6191H2.80652C2.76353 23.6191 2.7453 23.6258 2.73963 23.6287C2.73677 23.6343 2.73005 23.6526 2.73005 23.6956V24.9989C2.73005 25.0419 2.73677 25.0601 2.73963 25.0658C2.7453 25.0687 2.76353 25.0754 2.80652 25.0754H3.42858C3.49707 25.0754 3.54953 25.0578 3.59905 25.0268C3.65587 24.9913 3.67672 24.9624 3.68564 24.9386L3.68717 24.9345C3.73865 24.8058 3.81809 24.6968 3.92977 24.6211C4.04147 24.5454 4.17124 24.5126 4.30736 24.5126C4.46188 24.5126 4.61101 24.5499 4.73013 24.6488C4.85004 24.7484 4.91419 24.8894 4.93931 25.0463C4.98048 25.3037 5.00106 25.5611 5.00106 25.8283C5.00106 26.0857 4.98049 26.3526 4.93949 26.6191L4.93931 26.6202C4.91419 26.7772 4.85004 26.9181 4.73013 27.0177C4.61101 27.1167 4.46188 27.154 4.30736 27.154C4.17053 27.154 4.04274 27.1208 3.93216 27.0446C3.82292 26.9692 3.74563 26.8623 3.69053 26.7398C3.68776 26.7337 3.6853 26.7274 3.68317 26.721C3.67005 26.6816 3.64373 26.6479 3.59905 26.62C3.56074 26.5961 3.5118 26.5813 3.42858 26.5813H2.80652C2.76353 26.5813 2.7453 26.588 2.73963 26.5909C2.73677 26.5965 2.73005 26.6148 2.73005 26.6578V27.2206C2.73005 27.4481 2.74924 27.6243 2.79104 27.7665C2.79207 27.77 2.79301 27.7735 2.79385 27.7771C2.82764 27.9207 2.88734 28.0589 2.96691 28.1919C3.0548 28.3309 3.09538 28.4758 3.09538 28.6227C3.09538 28.8194 3.02766 29.0043 2.87193 29.1459C2.71908 29.2848 2.52927 29.346 2.30295 29.346H1.09832C0.871996 29.346 0.682181 29.2848 0.529331 29.1459C0.373602 29.0043 0.305883 28.8194 0.305883 28.6227C0.305883 28.4753 0.346736 28.33 0.43523 28.1905C0.588034 27.9439 0.67122 27.618 0.67122 27.2206V24.1596C0.67122 23.7622 0.588035 23.4363 0.435232 23.1897C0.346736 23.0503 0.305883 22.9049 0.305883 22.7575C0.305883 22.5608 0.373603 22.3759 0.529332 22.2343ZM0.604621 23.0834C0.535503 22.9748 0.505881 22.8661 0.505881 22.7575C0.505881 22.6094 0.555251 22.4811 0.663865 22.3823C0.772479 22.2836 0.910714 22.2342 1.09832 22.2342H4.6332C4.88005 22.2342 5.06766 22.2935 5.21577 22.4218C5.35401 22.5502 5.433 22.7279 5.46262 22.9748L5.52186 23.5475C5.54161 23.7351 5.50211 23.893 5.41325 24.0115C5.32438 24.13 5.17627 24.1893 4.98867 24.1893C4.85043 24.1893 4.74182 24.1596 4.66283 24.0905C4.57396 24.0313 4.49497 23.9227 4.4061 23.7746C4.33699 23.6561 4.23825 23.5672 4.10988 23.508C3.97165 23.4487 3.81366 23.4191 3.63593 23.4191H2.80652C2.61891 23.4191 2.53005 23.508 2.53005 23.6956V24.9989C2.53005 25.1865 2.61891 25.2754 2.80652 25.2754H3.42858C3.53719 25.2754 3.62606 25.2458 3.70505 25.1964C3.78404 25.147 3.84329 25.0878 3.87291 25.0088C3.9519 24.8113 4.10001 24.7126 4.30736 24.7126C4.55421 24.7126 4.70232 24.8311 4.74182 25.0779C4.78131 25.3248 4.80106 25.5716 4.80106 25.8283C4.80106 26.0752 4.78131 26.3319 4.74182 26.5886C4.70232 26.8355 4.55421 26.954 4.30736 26.954C4.10001 26.954 3.96177 26.8552 3.87291 26.6578C3.84329 26.5689 3.78404 26.4998 3.70505 26.4504C3.62606 26.401 3.53719 26.3813 3.42858 26.3813H2.80652C2.61891 26.3813 2.53005 26.4702 2.53005 26.6578V27.2206C2.53005 27.4575 2.5498 27.655 2.59916 27.8229C2.63866 27.9907 2.70778 28.1487 2.79664 28.2968C2.86576 28.4055 2.89538 28.5141 2.89538 28.6227C2.89538 28.7708 2.84601 28.8992 2.7374 28.9979C2.62879 29.0966 2.49055 29.146 2.30295 29.146H1.09832C0.910714 29.146 0.772479 29.0966 0.663865 28.9979C0.555251 28.8992 0.505881 28.7708 0.505881 28.6227C0.505881 28.5141 0.535503 28.4055 0.604621 28.2968C0.782353 28.0105 0.871219 27.6452 0.871219 27.2206V24.1596C0.871219 23.7351 0.782353 23.3697 0.604621 23.0834Z" fill="#D72300"/>
<path d="M35.8081 12.3515L34.346 16.2795L31.6754 13.0493L35.8081 12.3515Z" fill="#198737"/>
<path fill-rule="evenodd" clip-rule="evenodd" d="M34.1088 13.8822C34.364 14.2631 34.262 14.7787 33.8811 15.0338L27.1674 19.5308C26.9831 19.6542 26.7571 19.6988 26.5397 19.6545C26.3223 19.6102 26.1318 19.4807 26.0105 19.295L23.8508 15.9874L15.8102 20.3704C15.4077 20.5898 14.9036 20.4413 14.6842 20.0388C14.4647 19.6363 14.6132 19.1322 15.0157 18.9128L23.7294 14.1629C24.1095 13.9557 24.585 14.0754 24.8217 14.4379L26.9413 17.6841L32.9573 13.6545C33.3382 13.3994 33.8537 13.5013 34.1088 13.8822Z" fill="#198737"/>
</svg>
